<svg version="1.1" id="Layer_1" xmlns="http://www.w3.org/2000/svg" xmlns:xlink="http://www.w3.org/1999/xlink" x="0px" y="0px"
	 width="100%" viewBox="0 0 685 518" style="background: transparent;" xml:space="preserve">
<path fill="transparent" opacity="0.000000" stroke="none" 
	d="
M425.000000,519.000000 
	C283.333344,519.000000 142.166672,519.000000 1.000000,519.000000 
	C1.000000,346.333344 1.000000,173.666672 1.000000,1.000000 
	C229.333328,1.000000 457.666656,1.000000 686.000000,1.000000 
	C686.000000,173.666672 686.000000,346.333344 686.000000,519.000000 
	C599.166687,519.000000 512.333313,519.000000 425.000000,519.000000 
M338.600677,366.271729 
	C338.363037,366.479340 338.160095,366.716583 337.986969,366.996918 
	C337.986969,366.996918 337.974579,366.981323 337.300934,367.145050 
	C336.257629,367.922607 334.989441,368.521454 334.207001,369.506317 
	C328.465118,376.733307 327.156555,394.401093 331.769135,402.183777 
	C332.230621,402.962372 333.226654,403.424103 334.260559,404.406952 
	C334.463318,404.648132 334.688507,404.866180 335.018738,405.711609 
	C335.675079,406.484070 336.331390,407.256531 337.521240,408.364838 
	C338.674469,409.576294 339.827667,410.787781 341.225708,412.608582 
	C342.156433,413.060150 343.087128,413.511688 344.014465,413.992432 
	C344.014465,413.992432 344.035553,413.968781 344.246582,414.623871 
	C349.861572,419.942322 356.964539,420.539429 364.844635,420.833160 
	C366.231964,420.608398 367.619324,420.383636 369.695557,420.521210 
	C376.097931,421.440948 382.007233,420.473328 387.000000,416.000000 
	C387.000000,416.000000 387.000000,416.000061 387.716736,415.965942 
	C389.137634,414.971741 390.558563,413.977539 391.994293,412.996338 
	C391.994293,412.996338 391.992584,412.979645 392.694641,412.950745 
	C393.807526,411.984192 394.920441,411.017639 396.018982,410.031036 
	C396.018982,410.031036 396.035339,410.012756 396.408203,409.731995 
	C396.643219,409.524384 396.844452,409.288025 397.013153,409.006866 
	C397.013153,409.006866 397.025452,409.027588 397.515747,409.026001 
	C397.515747,409.026001 398.005554,409.004730 398.493835,409.008331 
	C398.493835,409.008331 398.982056,409.017853 399.114655,409.568573 
	C399.392578,410.055817 399.670471,410.543030 399.961761,411.675415 
	C399.978790,412.105255 399.995819,412.535095 399.675629,413.436035 
	C400.078552,414.310059 400.481445,415.184113 401.142090,416.537506 
	C401.431030,416.998657 401.719971,417.459808 402.602448,418.411102 
	C409.319672,418.780457 416.039642,419.375793 422.751404,419.294250 
	C423.855865,419.280792 425.713226,416.363831 425.860138,414.670563 
	C426.287384,409.746033 426.123199,404.759247 426.009735,399.800995 
	C425.743591,388.171387 425.229553,376.545654 425.106903,364.915314 
	C425.051025,359.618073 426.433655,354.219879 425.786224,349.039673 
	C425.183075,344.214233 422.752258,339.617188 420.839844,334.361908 
	C420.569702,333.576111 420.299591,332.790314 419.967896,331.343445 
	C419.325012,330.553436 418.682098,329.763428 418.005951,329.000061 
	C418.005951,329.000061 418.030975,328.969513 417.974854,328.273285 
	C416.986786,327.179016 415.998749,326.084747 415.001221,325.000000 
	C415.001221,325.000000 415.008270,324.993713 414.886841,324.434570 
	C414.579346,323.961945 414.271820,323.489349 414.008026,323.009460 
	C414.008026,323.009460 413.977264,323.041748 413.639130,322.454102 
	C408.097565,319.625702 402.556030,316.797333 396.285187,313.913391 
	C395.555084,313.870880 394.824982,313.828400 393.789520,313.234955 
	C392.855865,312.825745 391.922211,312.416504 390.077271,312.010498 
	C386.748810,311.940979 383.420319,311.871429 379.666016,311.186707 
	C375.639740,309.544403 371.658844,308.702271 367.190704,311.882660 
	C366.476318,311.890930 365.761932,311.899231 364.513641,311.559570 
	C363.337738,311.705292 362.161804,311.851013 360.340027,312.024475 
	C359.909088,312.027313 359.478180,312.030151 358.256226,312.058899 
	C354.169678,313.699493 350.083130,315.340057 346.000793,316.998779 
	C346.000793,316.998779 345.985413,316.989594 345.338104,317.017731 
	C344.569550,317.357452 343.800995,317.697174 343.017883,318.011047 
	C343.017883,318.011047 343.016876,318.034027 342.634888,318.303162 
	C342.391052,318.501617 342.184692,318.733459 342.007446,319.009033 
	C342.007446,319.009033 341.996887,319.017303 341.438995,319.120758 
	C340.957184,319.405792 340.475403,319.690796 339.993469,319.998779 
	C339.993469,319.998779 339.977936,319.978912 339.319092,320.031891 
	C338.546326,320.686493 337.773560,321.341095 337.001221,322.001221 
	C337.001221,322.001221 336.995514,322.000580 336.436432,322.119263 
	C335.963684,322.425659 335.490906,322.732025 335.030762,322.998322 
	C335.030762,322.998322 335.044006,323.039581 334.361053,323.174438 
	C329.372009,326.315460 329.145477,327.438263 333.325073,330.347870 
	C333.547546,330.567627 333.751251,330.803589 334.004944,331.747162 
	C334.992218,332.839630 335.979462,333.932098 336.994995,335.000000 
	C336.994995,335.000000 336.973907,335.025452 337.031464,335.681488 
	C337.672729,336.468719 338.313995,337.255951 339.315918,338.355499 
	C339.545593,338.576813 339.754181,338.816467 340.089111,339.620331 
	C340.406799,340.081085 340.724487,340.541840 341.396118,341.284576 
	C341.620117,341.488983 341.817017,341.716827 342.039703,342.615814 
	C342.980957,343.086975 344.318359,344.212524 344.798401,343.921906 
	C347.664825,342.186462 350.333527,340.124481 353.784790,338.118591 
	C354.500427,338.057922 355.216095,337.997253 356.712006,337.819855 
	C362.083710,336.732208 367.444519,334.787628 372.829132,334.719360 
	C388.309601,334.523071 395.389984,336.960602 397.546387,351.418030 
	C396.747925,351.667755 395.949493,351.917511 394.188690,352.078644 
	C383.718475,352.398712 373.214752,352.334351 362.795959,353.243591 
	C359.058044,353.569794 355.525055,356.243835 351.348816,358.137665 
	C350.574463,358.419739 349.800140,358.701813 348.458984,359.099792 
	C347.973511,359.396912 347.488037,359.694061 347.000153,360.001221 
	C347.000153,360.001221 346.990448,359.996979 346.297577,360.027100 
	C344.861237,361.009735 343.424896,361.992401 342.000793,362.991486 
	C342.000793,362.991486 341.983917,362.991211 341.605713,363.271240 
	C341.366028,363.477448 341.161224,363.713867 340.998657,363.998779 
	C340.998657,363.998779 340.980164,363.991089 340.602966,364.269562 
	C340.364014,364.474792 340.159637,364.710114 339.996124,364.996338 
	C339.996124,364.996338 339.975159,364.989777 339.599731,365.269470 
	C339.362091,365.475555 339.158905,365.711334 338.996857,365.997498 
	C338.996857,365.997498 338.976349,365.990021 338.600677,366.271729 
M573.363342,448.651428 
	C573.566589,448.375183 573.769897,448.098969 574.340515,447.283875 
	C584.981689,436.709381 589.936584,423.149689 594.517151,409.326111 
	C596.688721,402.772308 599.491089,396.427490 602.061218,390.092773 
	C602.061218,390.092773 601.988098,390.007874 602.060974,389.248474 
	C606.952026,376.030640 611.727112,362.768372 616.771790,349.609406 
	C620.630615,339.543793 624.838440,329.612152 628.874084,319.614044 
	C630.384705,315.871796 628.472900,312.944000 624.378174,313.053802 
	C618.594849,313.208923 612.820740,313.774231 607.038086,313.863770 
	C603.463989,313.919098 601.565857,315.472321 600.534363,318.798157 
	C599.561707,321.934143 598.189026,324.946136 596.937866,327.917908 
	C596.937866,327.917908 597.012207,327.992279 596.958496,328.646088 
	C596.636047,329.435638 596.313599,330.225189 595.939636,330.923309 
	C595.939636,330.923309 596.014282,330.991150 595.975342,331.781525 
	C590.977417,347.497070 585.979431,363.212585 580.981506,378.928101 
	C580.377808,379.007812 579.774109,379.087524 579.170410,379.167206 
	C577.818359,377.717621 575.873535,376.498688 575.206055,374.782806 
	C568.527893,357.616180 561.970886,340.400757 555.567566,323.129456 
	C551.994141,313.490814 552.153503,313.422913 542.046265,313.498108 
	C539.741699,313.515259 537.366882,313.285156 535.150818,313.759308 
	C532.139343,314.403717 527.604431,311.191528 526.387329,315.651764 
	C525.683777,318.230225 527.662964,321.707672 528.854248,324.608215 
	C534.975586,339.512634 541.336365,354.319244 547.393127,369.249359 
	C549.882751,375.386230 551.820251,381.747101 553.899231,388.057281 
	C553.899231,388.057281 553.994080,387.991119 554.495361,388.476929 
	C557.444824,395.526886 560.804688,402.438019 563.247314,409.659393 
	C566.895508,420.444550 559.635620,432.234222 548.326538,434.056702 
	C544.337524,434.699554 540.137451,434.032745 535.653748,434.275604 
	C535.412292,434.499481 535.204346,434.751068 535.050049,435.002502 
	C535.050049,435.002502 535.059265,435.036652 534.456848,435.464508 
	C533.958923,437.633087 533.460999,439.801636 532.992432,442.000763 
	C532.992432,442.000763 532.952271,441.984680 532.472961,442.532410 
	C531.998535,446.349396 531.524109,450.166412 530.998779,453.995911 
	C530.998779,453.995911 531.040833,453.964081 531.266235,454.639404 
	C537.920227,460.429474 556.306152,460.456207 563.002441,455.004883 
	C563.002441,455.004883 562.997070,455.011475 563.558838,454.886841 
	C564.051208,454.600616 564.543579,454.314392 565.482361,453.992371 
	C565.482361,453.992371 565.929871,453.975983 566.507446,453.860352 
	C567.000366,453.557251 567.493225,453.254150 567.974915,453.004608 
	C567.974915,453.004608 567.944092,452.959259 568.532593,452.789642 
	C569.017151,452.181244 569.501709,451.572845 570.008362,450.995972 
	C570.008362,450.995972 569.971252,450.986572 570.536743,450.867523 
	C571.016418,450.561096 571.496155,450.254639 572.010620,449.981354 
	C572.010620,449.981354 571.963684,449.973633 572.346680,449.685242 
	C572.589722,449.474243 572.799500,449.234100 573.001160,448.999878 
	C573.001160,448.999878 572.965088,448.976746 573.363342,448.651428 
M302.720795,324.619202 
	C302.512390,324.378662 302.275024,324.171234 301.998779,323.998779 
	C301.998779,323.998779 302.008911,323.989685 301.958038,323.270660 
	C300.664612,322.160187 299.371155,321.049713 298.034119,319.944519 
	C298.034119,319.944519 298.054901,319.905823 297.874084,319.283203 
	C296.899994,318.535950 295.925934,317.788666 294.984558,316.995209 
	C294.984558,316.995209 294.973572,317.049927 294.697723,316.571320 
	C293.799469,316.332031 292.901215,316.092712 291.318634,315.734497 
	C289.578064,315.081268 287.837524,314.428040 285.823395,313.124268 
	C285.097168,312.498718 284.374237,311.334442 283.644165,311.329956 
	C275.302490,311.278259 266.951172,311.227631 258.624634,311.633453 
	C257.014526,311.711914 255.500351,313.759033 253.474411,315.338684 
	C252.317764,315.883698 251.161118,316.428680 249.280807,317.025787 
	C247.189590,318.352936 245.098358,319.680115 242.465195,321.035156 
	C242.284317,321.035431 242.103439,321.035736 241.956497,320.133362 
	C241.912003,305.465790 241.905136,290.797791 241.742859,276.131531 
	C241.731384,275.093597 240.575455,274.068298 239.981689,272.993927 
	C239.981689,272.993927 239.975616,273.045471 239.557648,272.452179 
	C238.697342,272.032074 237.850388,271.282532 236.974518,271.247070 
	C232.404266,271.062012 227.809464,270.789154 223.257217,271.079651 
	C219.813141,271.299438 216.420090,272.318909 212.555176,273.682037 
	C212.367599,275.150024 212.017120,276.617920 212.016113,278.086060 
	C211.985306,322.951630 211.977524,367.817261 212.028946,412.682800 
	C212.030975,414.442627 212.649567,416.201752 213.284119,418.358368 
	C213.502151,418.612366 213.745850,418.838715 214.590652,419.534912 
	C222.290573,419.869446 229.989746,420.227692 237.692505,420.474182 
	C238.112793,420.487640 238.562897,419.569000 239.383453,418.774323 
	C239.628830,418.553680 239.853653,418.313782 240.689102,417.726440 
	C240.799500,414.703217 240.951279,411.680847 241.013351,408.656616 
	C241.347336,392.388733 241.683044,376.120850 241.972290,359.852112 
	C242.329514,339.758057 255.464645,335.255798 270.843109,338.885773 
	C278.466736,340.685303 281.146515,347.201752 283.010986,354.950928 
	C283.005951,373.859039 282.971100,392.767212 283.038025,411.675079 
	C283.045441,413.770844 283.633667,415.864532 284.500031,417.957764 
	C284.682373,417.950348 284.864746,417.942963 285.037292,417.949585 
	C285.037292,417.949585 285.038239,417.961548 285.588654,418.494507 
	C293.747742,418.692657 301.913269,419.093475 310.057861,418.835236 
	C311.088135,418.802582 312.837097,415.319611 312.853760,413.422882 
	C313.047913,391.328827 313.130707,369.230682 312.880157,347.137695 
	C312.798248,339.918365 310.215149,333.311462 305.001221,327.998779 
	C305.001221,327.998779 305.024017,327.979523 304.961548,327.322418 
	C304.309448,326.545471 303.657379,325.768555 303.001221,324.998779 
	C303.001221,324.998779 303.006042,324.997955 302.720795,324.619202 
M463.378662,409.363739 
	C463.538116,409.549316 463.721466,409.707153 464.059601,409.915527 
	C464.059601,409.915527 464.175812,410.014343 464.269226,410.683899 
	C465.071991,411.700409 465.667633,413.070953 466.708740,413.679993 
	C480.921692,421.994171 495.904480,423.125244 511.465546,418.175995 
	C515.639160,416.848541 516.707214,413.963623 515.453308,409.942261 
	C514.461975,406.763000 513.629395,403.533020 512.593384,400.369080 
	C509.704865,391.547394 509.574768,391.498260 500.631500,393.593536 
	C490.007507,396.082550 483.103760,390.881287 483.030579,380.178864 
	C482.946259,367.848389 483.102631,355.515686 482.943359,343.186676 
	C482.893341,339.315125 484.266968,337.769501 488.178864,337.908569 
	C493.837067,338.109711 499.513702,338.085846 505.170166,337.855347 
	C506.748657,337.791046 508.283691,336.660553 509.922607,335.915619 
	C509.922607,335.915619 510.017975,335.822571 510.700195,335.523804 
	C511.117920,329.676392 511.815613,323.831268 511.863678,317.980835 
	C511.901215,313.408020 509.647308,312.105042 505.033478,312.451324 
	C499.744659,312.848297 494.424500,312.891968 489.116486,312.948181 
	C484.951813,312.992310 482.671997,311.279053 482.934052,306.607208 
	C483.231537,301.303986 483.071381,295.968567 482.937592,290.651489 
	C482.893311,288.890900 483.484711,286.211243 479.089508,286.923370 
	C472.052704,286.923859 465.015930,286.924347 457.756897,286.768616 
	C457.481354,286.672150 457.230927,286.721130 456.481079,286.943665 
	C456.307068,286.962891 456.133057,286.982147 455.276978,287.358154 
	C454.844940,289.056335 454.081177,290.746460 454.039795,292.454132 
	C453.882385,298.944489 453.958435,305.440460 453.584137,312.272461 
	C453.358246,312.515503 453.156158,312.776947 452.195282,313.028717 
	C450.480469,313.335052 448.765686,313.641418 446.201782,313.949890 
	C444.786652,313.950592 443.371521,313.951263 441.391693,313.576538 
	C438.355133,312.503571 436.708923,313.035919 436.816010,316.799316 
	C437.005768,323.468628 436.869232,330.147217 436.869232,337.725952 
	C438.444977,337.145233 439.756958,336.661713 441.689209,336.189514 
	C442.102783,336.186127 442.516327,336.182739 443.346710,336.786957 
	C444.398254,337.168549 445.426880,337.790192 446.505005,337.893066 
	C453.986176,338.606720 453.990692,338.572144 453.990051,346.028870 
	C453.988861,359.940491 453.754089,373.857697 454.090546,387.761139 
	C454.239136,393.902588 454.770081,400.288025 460.066772,404.953796 
	C460.066772,404.953796 460.136108,405.059662 460.137238,405.738495 
	C461.086761,406.767090 462.036285,407.795685 463.084564,408.939606 
	C463.084564,408.939606 463.162903,409.069672 463.378662,409.363739 
M469.982208,97.218376 
	C469.338684,96.914345 468.695160,96.610321 467.603973,96.011063 
	C467.428192,95.978477 467.252441,95.945900 466.662323,95.348976 
	C450.906097,87.972809 434.281342,86.373886 417.077728,87.083855 
	C415.893585,84.717316 414.957031,82.183144 413.486145,80.010727 
	C401.610046,62.470074 385.618347,50.208656 364.755920,46.202850 
	C352.962524,43.938396 340.625214,44.226536 328.519379,43.945576 
	C315.372498,43.640453 301.988068,42.494404 289.098083,44.382950 
	C257.118500,49.068367 233.643677,66.673676 222.950058,97.357933 
	C211.704849,129.624985 219.554947,158.961182 242.464752,184.315994 
	C244.035660,186.054535 245.149475,188.852264 245.214981,191.192703 
	C245.494446,201.177597 245.313477,211.175812 245.272537,221.169037 
	C245.251724,226.248886 246.144226,230.864746 251.397247,233.215912 
	C256.460876,235.482300 260.727234,233.772629 264.736145,230.504211 
	C273.380524,223.456619 282.187897,216.604767 290.710449,209.414276 
	C293.724365,206.871460 296.761719,205.893982 300.661133,205.941193 
	C317.813904,206.148911 334.969910,206.090652 352.524536,206.628510 
	C355.339813,209.329102 358.155090,212.029694 361.068695,214.995041 
	C361.068695,214.995041 361.348816,215.030975 361.630219,215.580795 
	C363.728790,217.097427 365.827332,218.614075 368.205261,220.613617 
	C368.824554,221.006516 369.443878,221.399399 370.413727,222.383362 
	C372.252045,223.347336 374.090393,224.311325 376.384064,225.771912 
	C382.299042,227.868225 388.086456,231.174377 394.155029,231.814377 
	C407.666168,233.239258 421.313110,233.568634 434.914825,233.842896 
	C440.001923,233.945450 444.173187,235.130661 448.232697,238.205124 
	C454.588287,243.018478 461.146210,247.612854 467.923035,251.807877 
	C474.338287,255.779037 480.849670,252.593216 482.048828,245.181717 
	C482.522217,242.255630 482.573639,239.212296 482.420807,236.242752 
	C481.895111,226.027328 481.283875,215.872955 491.271210,209.066635 
	C492.322723,208.350021 492.977875,207.042374 493.794128,205.991272 
	C514.754883,178.999588 513.980774,139.847794 491.877228,115.363533 
	C491.300018,114.824036 490.722809,114.284538 489.868134,113.147736 
	C486.003143,109.715019 482.138123,106.282310 477.910736,102.281204 
	C475.383118,100.745705 472.855469,99.210205 470.260162,97.895996 
	C470.260162,97.895996 470.295135,97.667542 469.982208,97.218376 
M90.459267,416.224854 
	C90.636322,414.749847 90.967224,413.274963 90.968079,411.799866 
	C90.993683,367.664337 90.997864,323.528778 90.943733,279.393311 
	C90.941566,277.626953 90.337524,275.861359 89.791725,273.356079 
	C87.961288,272.572113 86.155159,271.196228 84.295654,271.119873 
	C79.520851,270.923798 74.701576,271.653656 69.938347,271.370239 
	C63.281639,270.974152 61.167107,272.518646 61.051720,279.240509 
	C60.946365,285.378021 60.789997,291.530914 61.100395,297.654541 
	C61.377754,303.126251 62.261814,308.567230 62.901642,314.754333 
	C62.883865,315.486847 62.866089,316.219360 62.212868,317.363525 
	C61.815788,319.250641 61.051334,321.143433 61.080593,323.023926 
	C61.287659,336.330627 61.808414,349.633362 61.937225,362.940186 
	C62.098026,379.551666 62.069313,396.166687 61.919621,412.778320 
	C61.880100,417.163666 63.222641,419.277496 67.916306,419.089722 
	C71.378204,418.951202 74.918320,419.995148 78.332527,419.639069 
	C82.282524,419.227173 86.132736,417.858337 90.459267,416.224854 
M138.555069,382.799255 
	C133.958740,374.495636 133.295471,365.636536 135.670639,356.682343 
	C140.494843,338.495422 158.315170,330.841217 176.140320,339.055481 
	C178.663055,340.218048 181.105469,341.554932 183.436859,342.736053 
	C187.753235,337.556549 191.978745,332.869019 195.658279,327.786255 
	C196.518051,326.598602 196.245697,322.958893 195.274918,322.330261 
	C185.195679,315.803406 174.862213,309.688354 162.038330,311.288574 
	C159.895233,311.556000 157.742157,311.799805 155.586487,311.901093 
	C139.930984,312.636627 127.684204,319.760468 118.350952,332.047577 
	C108.833992,344.576538 106.204048,359.190247 108.231781,374.229065 
	C110.925911,394.210266 120.569481,409.709259 141.004349,416.102844 
	C146.177490,417.721375 151.663300,418.386200 157.035858,419.312897 
	C170.197647,421.583069 181.671814,416.966736 192.303345,409.951874 
	C197.919525,406.246216 197.838776,404.844910 193.788284,399.674164 
	C192.457413,397.975189 190.945267,396.410583 189.443878,394.854126 
	C183.597275,388.792725 183.586502,388.803162 175.924728,392.571686 
	C161.661453,399.587280 148.212814,396.255096 138.555069,382.799255 
z"/>
<path fill="#00ff41" opacity="1.000000" stroke="none" 
	d="
M352.124725,206.128784 
	C334.969910,206.090652 317.813904,206.148911 300.661133,205.941193 
	C296.761719,205.893982 293.724365,206.871460 290.710449,209.414276 
	C282.187897,216.604767 273.380524,223.456619 264.736145,230.504211 
	C260.727234,233.772629 256.460876,235.482300 251.397247,233.215912 
	C246.144226,230.864746 245.251724,226.248886 245.272537,221.169037 
	C245.313477,211.175812 245.494446,201.177597 245.214981,191.192703 
	C245.149475,188.852264 244.035660,186.054535 242.464752,184.315994 
	C219.554947,158.961182 211.704849,129.624985 222.950058,97.357933 
	C233.643677,66.673676 257.118500,49.068367 289.098083,44.382950 
	C301.988068,42.494404 315.372498,43.640453 328.519379,43.945576 
	C340.625214,44.226536 352.962524,43.938396 364.755920,46.202850 
	C385.618347,50.208656 401.610046,62.470074 413.486145,80.010727 
	C414.957031,82.183144 415.893585,84.717316 416.926392,87.681297 
	C414.886780,88.480766 413.001343,88.824951 411.109772,88.862648 
	C393.754791,89.208443 378.308685,94.814636 365.126160,106.077690 
	C341.949951,125.879311 332.391571,150.731110 340.012299,180.632965 
	C342.292389,189.579453 347.991852,197.654495 352.124725,206.128784 
z"/>
<path fill="#ff0080" opacity="1.000000" stroke="none" 
	d="
M478.273102,102.849609 
	C482.138123,106.282310 486.003143,109.715019 490.066345,113.752861 
	C490.848755,114.889603 491.432953,115.421227 492.017151,115.952843 
	C513.980774,139.847794 514.754883,178.999588 493.794128,205.991272 
	C492.977875,207.042374 492.322723,208.350021 491.271210,209.066635 
	C481.283875,215.872955 481.895111,226.027328 482.420807,236.242752 
	C482.573639,239.212296 482.522217,242.255630 482.048828,245.181717 
	C480.849670,252.593216 474.338287,255.779037 467.923035,251.807877 
	C461.146210,247.612854 454.588287,243.018478 448.232697,238.205124 
	C444.173187,235.130661 440.001923,233.945450 434.914825,233.842896 
	C421.313110,233.568634 407.666168,233.239258 394.155029,231.814377 
	C388.086456,231.174377 382.299042,227.868225 376.148865,225.147964 
	C374.237549,220.485092 373.493896,220.137878 370.063171,221.792282 
	C369.443878,221.399399 368.824554,221.006516 368.054260,220.001099 
	C367.160675,215.766724 364.637207,214.823593 361.348816,215.030975 
	C361.348816,215.030975 361.068695,214.995041 361.165405,214.506989 
	C360.352081,212.363647 359.806671,210.299713 358.477753,209.113861 
	C335.737549,188.822205 335.951691,151.751389 347.282898,130.608521 
	C355.870941,114.584122 368.903717,103.093887 385.394348,96.155060 
	C392.836700,93.023499 401.406891,91.827202 409.549377,91.416100 
	C413.677551,91.207672 417.172913,92.525703 421.950073,90.646240 
	C429.897308,87.519569 438.821045,89.295288 447.281494,91.681885 
	C453.762115,93.509995 460.469940,94.532501 467.076721,95.913315 
	C467.252441,95.945900 467.428192,95.978477 467.947357,96.419342 
	C468.958862,97.107597 469.627014,97.387566 470.295135,97.667542 
	C470.295135,97.667542 470.260162,97.895996 470.252502,98.177521 
	C470.897888,103.621696 475.478790,101.602272 478.273102,102.849609 
z"/>
<path fill="#1a4480" opacity="1.000000" stroke="none" 
	d="
M241.922577,321.036011 
	C242.103439,321.035736 242.284317,321.035431 242.980591,321.163788 
	C245.665482,319.852844 247.834976,318.413239 250.004471,316.973663 
	C251.161118,316.428680 252.317764,315.883698 254.090332,315.071289 
	C259.077271,313.866699 263.438477,312.224030 267.821686,312.162903 
	C273.904785,312.078125 280.004395,313.180634 286.096954,313.774811 
	C287.837524,314.428040 289.578064,315.081268 291.898804,316.024719 
	C293.310516,316.559906 294.142029,316.804901 294.973572,317.049927 
	C294.973572,317.049927 294.984558,316.995209 295.056396,317.332886 
	C296.103760,318.415649 297.079346,319.160736 298.054901,319.905823 
	C298.054901,319.905823 298.034119,319.944519 298.200867,320.225220 
	C299.581390,321.667206 300.795135,322.828430 302.008911,323.989685 
	C302.008911,323.989685 301.998779,323.998779 302.136292,324.196045 
	C302.479309,324.641541 302.723389,324.843109 303.006042,324.997955 
	C303.006042,324.997955 303.001221,324.998779 303.063934,325.302917 
	C303.759094,326.397888 304.391571,327.188690 305.024017,327.979523 
	C305.024017,327.979523 305.001221,327.998779 305.078003,328.353394 
	C307.081329,335.739349 310.413971,342.719910 310.669769,349.811493 
	C311.424713,370.742859 310.959412,391.718170 310.978607,412.676270 
	C310.981995,416.353058 309.369751,418.111542 305.496643,418.017151 
	C298.680786,417.851013 291.858063,417.964905 285.038239,417.961548 
	C285.038239,417.961548 285.037292,417.949585 285.050598,417.479980 
	C285.058655,397.361572 285.081818,377.712708 285.037476,358.063965 
	C285.011108,346.387329 278.775055,337.794403 269.290466,336.182617 
	C254.571777,333.681427 244.815750,338.510712 240.839432,350.757721 
	C239.630493,354.481201 239.185547,358.590424 239.142365,362.531219 
	C238.939972,381.011871 238.999634,399.495422 238.500397,417.989075 
	C232.371231,417.991150 226.707352,417.985840 221.043503,417.972107 
	C214.231384,417.955566 214.022202,417.718018 214.018463,410.953308 
	C213.995193,368.974030 213.959641,326.994751 213.951385,284.556702 
	C213.984543,282.766846 214.000336,281.435760 214.003448,280.104675 
	C214.019241,273.365265 214.335892,273.018677 221.006973,273.002380 
	C227.329788,272.986938 233.652725,273.028809 239.975616,273.045471 
	C239.975616,273.045471 239.981689,272.993927 239.979050,273.444214 
	C239.660767,287.756500 239.233200,301.617981 239.163269,315.481201 
	C239.153961,317.328125 240.958191,319.184174 241.922577,321.036011 
z"/>
<path fill="#1a4480" opacity="1.000000" stroke="none" 
	d="
M398.982056,409.017853 
	C398.982056,409.017853 398.493835,409.008331 398.139099,408.910522 
	C397.484650,408.691071 397.231659,408.762695 397.025452,409.027588 
	C397.025452,409.027588 397.013153,409.006866 396.819641,409.148285 
	C396.384308,409.493988 396.187347,409.735016 396.035339,410.012756 
	C396.035339,410.012756 396.018982,410.031036 395.718689,410.117554 
	C394.276459,411.129242 393.134521,412.054443 391.992584,412.979645 
	C391.992584,412.979645 391.994293,412.996338 391.655426,413.048950 
	C389.877716,414.067719 388.438843,415.033875 387.000000,416.000061 
	C387.000000,416.000061 387.000000,416.000000 386.613922,416.022736 
	C380.487457,417.416595 374.747040,418.787750 369.006653,420.158875 
	C367.619324,420.383636 366.231964,420.608398 364.284668,420.555298 
	C357.161682,418.174561 350.598633,416.071655 344.035553,413.968750 
	C344.035553,413.968781 344.014465,413.992432 343.840607,413.718872 
	C342.771454,412.963257 341.876190,412.481262 340.980896,411.999237 
	C339.827667,410.787781 338.674469,409.576294 337.194122,407.886353 
	C336.223358,406.625641 335.579712,405.843353 334.936066,405.061096 
	C334.688507,404.866180 334.463318,404.648132 334.059296,403.833588 
	C332.910034,398.578033 331.740082,393.927673 331.062683,389.206635 
	C329.852081,380.769379 334.156494,373.923126 337.974579,366.981323 
	C337.974579,366.981323 337.986969,366.996918 338.182617,366.855286 
	C338.620850,366.508179 338.820221,366.266968 338.976349,365.990021 
	C338.976349,365.990021 338.996857,365.997498 339.186584,365.853333 
	C339.619293,365.505493 339.818878,365.265686 339.975159,364.989777 
	C339.975159,364.989777 339.996124,364.996338 340.186890,364.852722 
	C340.622101,364.506348 340.822937,364.267029 340.980164,363.991089 
	C340.980164,363.991089 340.998657,363.998779 341.189331,363.855621 
	C341.624695,363.508392 341.826019,363.267975 341.983917,362.991211 
	C341.983917,362.991211 342.000793,362.991486 342.340393,362.963623 
	C344.116821,361.956146 345.553650,360.976562 346.990448,359.996979 
	C346.990448,359.996979 347.000153,360.001221 347.285370,359.942322 
	C348.055634,359.583588 348.540710,359.283722 349.025787,358.983887 
	C349.800140,358.701813 350.574463,358.419739 352.010559,357.960541 
	C364.390625,353.325012 376.640717,353.949127 388.839661,353.857758 
	C390.947540,353.841949 393.047455,352.757874 395.151031,352.167236 
	C395.949493,351.917511 396.747925,351.667755 397.997040,350.908508 
	C400.001190,343.348755 393.691437,333.979828 383.797791,333.201263 
	C378.237274,332.763702 372.527679,332.544739 367.046997,333.340881 
	C363.200562,333.899597 359.627106,336.337738 355.931732,337.936584 
	C355.216095,337.997253 354.500427,338.057922 353.064331,338.170197 
	C348.891541,339.470581 345.439178,340.719360 341.986816,341.968140 
	C341.817017,341.716827 341.620117,341.488983 341.145386,340.869263 
	C340.577026,339.994141 340.259369,339.534302 339.941742,339.074463 
	C339.754181,338.816467 339.545593,338.576813 339.080475,337.888123 
	C338.221313,336.622345 337.597626,335.823883 336.973907,335.025452 
	C336.973907,335.025452 336.994995,335.000000 336.917908,334.692810 
	C335.872650,333.275696 334.904449,332.165710 333.936249,331.055756 
	C333.751251,330.803589 333.547546,330.567627 333.156311,329.809570 
	C333.673004,327.194031 334.358521,325.116791 335.044006,323.039581 
	C335.044006,323.039581 335.030762,322.998322 335.306458,322.963806 
	C336.053314,322.619720 336.524414,322.310150 336.995514,322.000580 
	C336.995514,322.000580 337.001221,322.001221 337.308105,321.939209 
	C338.402649,321.244446 339.190277,320.611694 339.977936,319.978912 
	C339.977936,319.978912 339.993469,319.998779 340.276978,319.946136 
	C341.039276,319.601440 341.518097,319.309387 341.996887,319.017303 
	C341.996887,319.017303 342.007446,319.009033 342.210022,318.877991 
	C342.666016,318.553345 342.867432,318.315704 343.016876,318.034027 
	C343.016876,318.034027 343.017883,318.011047 343.348541,318.009338 
	C344.447937,317.668274 345.216675,317.328918 345.985413,316.989563 
	C345.985413,316.989594 346.000793,316.998779 346.386414,316.973572 
	C350.863739,315.309937 354.955505,313.671478 359.047241,312.033020 
	C359.478180,312.030151 359.909088,312.027313 360.911926,312.192780 
	C362.671722,312.209900 363.859650,312.058685 365.047546,311.907501 
	C365.761932,311.899231 366.476318,311.890930 368.017395,311.906982 
	C372.593323,311.888184 376.342590,311.845032 380.091858,311.801880 
	C383.420319,311.871429 386.748810,311.940979 390.658081,312.313354 
	C392.190887,313.006073 393.142883,313.395966 394.094879,313.785889 
	C394.824982,313.828400 395.555084,313.870880 396.847198,314.224182 
	C402.931885,317.370544 408.454559,320.206146 413.977264,323.041748 
	C413.977264,323.041748 414.008026,323.009460 414.045776,323.293976 
	C414.391815,324.050232 414.700043,324.521973 415.008270,324.993713 
	C415.008270,324.993713 415.001221,325.000000 415.069550,325.314026 
	C416.102264,326.741852 417.066620,327.855682 418.030975,328.969513 
	C418.030975,328.969513 418.005951,329.000061 418.072632,329.299805 
	C418.769379,330.401215 419.399414,331.202881 420.029480,332.004517 
	C420.299591,332.790314 420.569702,333.576111 421.026611,335.025177 
	C422.141754,339.727478 423.822754,343.757202 423.872894,347.807098 
	C424.142609,369.592163 423.952026,391.382507 424.063568,413.170319 
	C424.082886,416.944275 422.515930,418.116852 418.972198,418.002533 
	C413.322784,417.820312 407.663818,417.932953 402.008911,417.920959 
	C401.719971,417.459808 401.431030,416.998657 401.022461,415.965424 
	C400.606171,414.583862 400.309509,413.774414 400.012848,412.964935 
	C399.995819,412.535095 399.978790,412.105255 399.920990,411.065308 
	C399.580841,409.976074 399.281433,409.496979 398.982056,409.017853 
M379.032684,401.344086 
	C391.722290,398.794037 400.932709,392.312988 399.045654,375.624664 
	C398.633270,371.977631 397.184357,370.115906 393.482452,370.121552 
	C388.994781,370.128418 384.451355,369.648285 380.034027,370.198090 
	C374.989105,370.826019 369.693268,371.565460 365.148956,373.654205 
	C355.060730,378.291199 354.028564,390.357971 362.147614,397.808105 
	C367.042084,402.299347 372.870544,400.310516 379.032684,401.344086 
z"/>
<path fill="#1a4480" opacity="1.000000" stroke="none" 
	d="
M595.991089,331.014740 
	C596.313599,330.225189 596.636047,329.435638 596.979248,328.323181 
	C597.000000,328.000305 596.992371,328.012665 596.992371,328.012665 
	C598.189026,324.946136 599.561707,321.934143 600.534363,318.798157 
	C601.565857,315.472321 603.463989,313.919098 607.038086,313.863770 
	C612.820740,313.774231 618.594849,313.208923 624.378174,313.053802 
	C628.472900,312.944000 630.384705,315.871796 628.874084,319.614044 
	C624.838440,329.612152 620.630615,339.543793 616.771790,349.609406 
	C611.727112,362.768372 606.952026,376.030640 602.030518,389.624207 
	C602.000000,389.999969 602.007629,389.987976 602.007690,389.987976 
	C599.491089,396.427490 596.688721,402.772308 594.517151,409.326111 
	C589.936584,423.149689 584.981689,436.709381 573.958069,447.719604 
	C573.372131,448.429138 573.168640,448.702942 572.965088,448.976746 
	C572.965088,448.976746 573.001160,448.999878 572.781738,449.109314 
	C572.303528,449.423431 572.104004,449.675049 571.963684,449.973633 
	C571.963684,449.973633 572.010620,449.981354 571.709229,450.019958 
	C570.928955,450.367920 570.450134,450.677246 569.971252,450.986572 
	C569.971252,450.986572 570.008362,450.995972 569.706848,451.070953 
	C568.918274,451.750366 568.431152,452.354828 567.944092,452.959259 
	C567.944092,452.959259 567.974915,453.004608 567.688965,453.024109 
	C566.911987,453.354401 566.420959,453.665192 565.929871,453.976013 
	C565.929871,453.975983 565.482361,453.992371 564.971924,454.057587 
	C563.973267,454.419006 563.485168,454.715210 562.997070,455.011444 
	C562.997070,455.011475 563.002441,455.004883 562.598022,455.005005 
	C551.708069,457.687866 541.296143,458.169403 531.040833,453.964081 
	C531.040833,453.964081 530.998779,453.995911 531.103333,453.605438 
	C531.789307,449.471527 532.370789,445.728119 532.952271,441.984680 
	C532.952271,441.984680 532.992432,442.000763 533.196289,441.702576 
	C533.953247,439.281830 534.506287,437.159241 535.059326,435.036652 
	C535.059265,435.036652 535.050049,435.002502 535.249878,434.882812 
	C535.707642,434.542908 535.902344,434.276520 536.033752,433.963898 
	C540.137451,434.032745 544.337524,434.699554 548.326538,434.056702 
	C559.635620,432.234222 566.895508,420.444550 563.247314,409.659393 
	C560.804688,402.438019 557.444824,395.526886 554.247681,388.238464 
	C554.000000,388.000000 554.008911,388.006042 554.008911,388.006042 
	C551.820251,381.747101 549.882751,375.386230 547.393127,369.249359 
	C541.336365,354.319244 534.975586,339.512634 528.854248,324.608215 
	C527.662964,321.707672 525.683777,318.230225 526.387329,315.651764 
	C527.604431,311.191528 532.139343,314.403717 535.150818,313.759308 
	C537.366882,313.285156 539.741699,313.515259 542.046265,313.498108 
	C552.153503,313.422913 551.994141,313.490814 555.567566,323.129456 
	C561.970886,340.400757 568.527893,357.616180 575.206055,374.782806 
	C575.873535,376.498688 577.818359,377.717621 579.170410,379.167206 
	C579.774109,379.087524 580.377808,379.007812 580.981506,378.928101 
	C585.979431,363.212585 590.977417,347.497070 595.987793,331.391052 
	C596.000183,331.000549 595.991089,331.014740 595.991089,331.014740 
z"/>
<path fill="#1a4480" opacity="1.000000" stroke="none" 
	d="
M138.758453,383.106323 
	C148.212814,396.255096 161.661453,399.587280 175.924728,392.571686 
	C183.586502,388.803162 183.597275,388.792725 189.443878,394.854126 
	C190.945267,396.410583 192.457413,397.975189 193.788284,399.674164 
	C197.838776,404.844910 197.919525,406.246216 192.303345,409.951874 
	C181.671814,416.966736 170.197647,421.583069 157.035858,419.312897 
	C151.663300,418.386200 146.177490,417.721375 141.004349,416.102844 
	C120.569481,409.709259 110.925911,394.210266 108.231781,374.229065 
	C106.204048,359.190247 108.833992,344.576538 118.350952,332.047577 
	C127.684204,319.760468 139.930984,312.636627 155.586487,311.901093 
	C157.742157,311.799805 159.895233,311.556000 162.038330,311.288574 
	C174.862213,309.688354 185.195679,315.803406 195.274918,322.330261 
	C196.245697,322.958893 196.518051,326.598602 195.658279,327.786255 
	C191.978745,332.869019 187.753235,337.556549 183.436859,342.736053 
	C181.105469,341.554932 178.663055,340.218048 176.140320,339.055481 
	C158.315170,330.841217 140.494843,338.495422 135.670639,356.682343 
	C133.295471,365.636536 133.958740,374.495636 138.758453,383.106323 
z"/>
<path fill="#1a4480" opacity="1.000000" stroke="none" 
	d="
M455.959045,287.001434 
	C456.133057,286.982147 456.307068,286.962891 456.986359,286.943085 
	C457.491638,286.942505 457.979126,286.924805 457.979126,286.924805 
	C465.015930,286.924347 472.052704,286.923859 479.701416,287.328674 
	C480.529175,294.335297 480.780975,300.935699 480.949982,307.538239 
	C481.095703,313.232300 482.609619,314.888611 488.418274,314.928314 
	C493.545929,314.963379 498.683655,314.865936 503.801605,314.565826 
	C508.126343,314.312225 510.324951,315.659729 510.063293,320.418945 
	C509.781799,325.538849 510.011414,330.686829 510.017975,335.822571 
	C510.017975,335.822571 509.922607,335.915619 509.429443,335.952789 
	C501.687836,335.997437 494.428772,335.789581 487.197540,336.146729 
	C485.093597,336.250641 483.069366,337.968994 481.003906,339.421387 
	C481.009521,353.930634 481.019897,367.965790 481.034241,382.396729 
	C481.376068,393.661957 490.756744,396.386993 499.117493,395.965576 
	C502.249023,395.807709 506.317352,394.367706 508.265167,395.805817 
	C510.513947,397.466125 510.905853,401.654144 512.076599,404.754944 
	C512.487366,405.843048 512.846741,406.952942 513.178467,408.068115 
	C514.906555,413.877228 514.101929,415.810425 508.413055,417.295197 
	C496.149414,420.495911 484.043884,420.031281 472.393646,414.642426 
	C469.549347,413.326782 466.909607,411.568878 464.175812,410.014343 
	C464.175812,410.014343 464.059601,409.915527 463.891479,409.726562 
	C463.565125,409.347473 463.378296,409.191467 463.162903,409.069672 
	C463.162903,409.069672 463.084564,408.939606 462.967865,408.588501 
	C461.946136,407.178162 461.041107,406.118927 460.136108,405.059662 
	C460.136108,405.059662 460.066772,404.953796 459.957336,404.550354 
	C456.580231,396.174072 455.644775,387.885254 455.890106,379.300629 
	C456.183899,369.021271 455.965759,358.727295 455.969574,348.439636 
	C455.974426,335.477234 455.974579,335.477234 442.929901,336.179352 
	C442.516327,336.182739 442.102783,336.186127 440.991547,336.072388 
	C439.531525,334.508148 438.240509,333.106628 438.110992,331.604980 
	C437.788269,327.862183 438.237610,324.052826 437.915039,320.309998 
	C437.624695,316.940643 439.083130,315.100525 441.956390,313.951935 
	C443.371521,313.951263 444.786652,313.950592 446.914246,314.155029 
	C449.410431,313.925690 451.194183,313.491211 452.977905,313.056763 
	C453.156158,312.776947 453.358246,312.515503 454.119263,311.945557 
	C455.097656,309.962006 455.887390,308.312805 455.923187,306.647400 
	C456.064026,300.101501 455.967468,293.550537 455.959045,287.001434 
z"/>
<path fill="#1a4480" opacity="1.000000" stroke="none" 
	d="
M62.848312,316.951874 
	C62.866089,316.219360 62.883865,315.486847 63.112614,314.034668 
	C63.512646,311.341644 63.857426,309.368866 63.864597,307.394806 
	C63.901379,297.266510 63.990631,287.134552 63.751034,277.011230 
	C63.673988,273.756134 64.970772,272.924561 67.815948,272.976166 
	C72.147720,273.054749 76.482178,272.974213 80.815422,272.985352 
	C88.029335,273.003906 88.583954,273.237762 88.771385,280.454773 
	C88.965500,287.928864 88.308350,295.421173 88.344635,302.903961 
	C88.428291,320.153290 88.853317,337.401672 88.854202,354.650421 
	C88.854782,366.132172 88.296494,377.612854 88.114204,389.096008 
	C87.990463,396.890686 87.874390,404.696564 88.161606,412.482483 
	C88.330894,417.071808 86.378578,418.294220 82.206818,418.021240 
	C78.224236,417.760651 74.192558,417.737732 70.215332,418.041107 
	C65.554543,418.396667 63.728645,416.893311 63.814365,411.915405 
	C64.083382,396.292572 63.895538,380.661957 63.890717,365.034332 
	C63.886364,350.933746 63.929577,336.832886 63.843868,322.732819 
	C63.832150,320.803894 63.195583,318.878754 62.848312,316.951874 
z"/>
<path fill="#1a4480" opacity="1.000000" stroke="none" 
	d="
M62.530594,317.157715 
	C63.195583,318.878754 63.832150,320.803894 63.843868,322.732819 
	C63.929577,336.832886 63.886364,350.933746 63.890717,365.034332 
	C63.895538,380.661957 64.083382,396.292572 63.814365,411.915405 
	C63.728645,416.893311 65.554543,418.396667 70.215332,418.041107 
	C74.192558,417.737732 78.224236,417.760651 82.206818,418.021240 
	C86.378578,418.294220 88.330894,417.071808 88.161606,412.482483 
	C87.874390,404.696564 87.990463,396.890686 88.114204,389.096008 
	C88.296494,377.612854 88.854782,366.132172 88.854202,354.650421 
	C88.853317,337.401672 88.428291,320.153290 88.344635,302.903961 
	C88.308350,295.421173 88.965500,287.928864 88.771385,280.454773 
	C88.583954,273.237762 88.029335,273.003906 80.815422,272.985352 
	C76.482178,272.974213 72.147720,273.054749 67.815948,272.976166 
	C64.970772,272.924561 63.673988,273.756134 63.751034,277.011230 
	C63.990631,287.134552 63.901379,297.266510 63.864597,307.394806 
	C63.857426,309.368866 63.512646,311.341644 63.100876,313.668396 
	C62.261814,308.567230 61.377754,303.126251 61.100395,297.654541 
	C60.789997,291.530914 60.946365,285.378021 61.051720,279.240509 
	C61.167107,272.518646 63.281639,270.974152 69.938347,271.370239 
	C74.701576,271.653656 79.520851,270.923798 84.295654,271.119873 
	C86.155159,271.196228 87.961288,272.572113 89.901466,274.183655 
	C90.016228,322.309143 90.021248,369.607025 90.026276,416.904968 
	C86.132736,417.858337 82.282524,419.227173 78.332527,419.639069 
	C74.918320,419.995148 71.378204,418.951202 67.916306,419.089722 
	C63.222641,419.277496 61.880100,417.163666 61.919621,412.778320 
	C62.069313,396.166687 62.098026,379.551666 61.937225,362.940186 
	C61.808414,349.633362 61.287659,336.330627 61.080593,323.023926 
	C61.051334,321.143433 61.815788,319.250641 62.530594,317.157715 
z"/>
<path fill="#ff0080" opacity="1.000000" stroke="none" 
	d="
M466.869507,95.631149 
	C460.469940,94.532501 453.762115,93.509995 447.281494,91.681885 
	C438.821045,89.295288 429.897308,87.519569 421.950073,90.646240 
	C417.172913,92.525703 413.677551,91.207672 409.549377,91.416100 
	C401.406891,91.827202 392.836700,93.023499 385.394348,96.155060 
	C368.903717,103.093887 355.870941,114.584122 347.282898,130.608521 
	C335.951691,151.751389 335.737549,188.822205 358.477753,209.113861 
	C359.806671,210.299713 360.352081,212.363647 361.116272,214.374603 
	C358.155090,212.029694 355.339813,209.329102 352.324646,206.378647 
	C347.991852,197.654495 342.292389,189.579453 340.012299,180.632965 
	C332.391571,150.731110 341.949951,125.879311 365.126160,106.077690 
	C378.308685,94.814636 393.754791,89.208443 411.109772,88.862648 
	C413.001343,88.824951 414.886780,88.480766 416.980133,88.094742 
	C434.281342,86.373886 450.906097,87.972809 466.869507,95.631149 
z"/>
<path fill="#1a4480" opacity="1.000000" stroke="none" 
	d="
M238.965714,417.977936 
	C238.999634,399.495422 238.939972,381.011871 239.142365,362.531219 
	C239.185547,358.590424 239.630493,354.481201 240.839432,350.757721 
	C244.815750,338.510712 254.571777,333.681427 269.290466,336.182617 
	C278.775055,337.794403 285.011108,346.387329 285.037476,358.063965 
	C285.081818,377.712708 285.058655,397.361572 285.055481,417.472961 
	C284.864746,417.942963 284.682373,417.950348 284.232880,417.494568 
	C283.974213,397.954651 284.010651,378.877838 283.948395,359.801361 
	C283.942078,357.872375 283.340088,355.945343 283.014557,354.017426 
	C281.146515,347.201752 278.466736,340.685303 270.843109,338.885773 
	C255.464645,335.255798 242.329514,339.758057 241.972290,359.852112 
	C241.683044,376.120850 241.347336,392.388733 241.013351,408.656616 
	C240.951279,411.680847 240.799500,414.703217 240.100311,417.869385 
	C239.329590,418.000885 239.147644,417.989410 238.965714,417.977936 
z"/>
<path fill="transparent" opacity="0.000000" stroke="none" 
	d="
M481.008606,338.947327 
	C483.069366,337.968994 485.093597,336.250641 487.197540,336.146729 
	C494.428772,335.789581 501.687836,335.997437 509.387482,336.004578 
	C508.283691,336.660553 506.748657,337.791046 505.170166,337.855347 
	C499.513702,338.085846 493.837067,338.109711 488.178864,337.908569 
	C484.266968,337.769501 482.893341,339.315125 482.943359,343.186676 
	C483.102631,355.515686 482.946259,367.848389 483.030579,380.178864 
	C483.103760,390.881287 490.007507,396.082550 500.631500,393.593536 
	C509.574768,391.498260 509.704865,391.547394 512.593384,400.369080 
	C513.629395,403.533020 514.461975,406.763000 515.453308,409.942261 
	C516.707214,413.963623 515.639160,416.848541 511.465546,418.175995 
	C495.904480,423.125244 480.921692,421.994171 466.708740,413.679993 
	C465.667633,413.070953 465.071991,411.700409 464.222534,410.349121 
	C466.909607,411.568878 469.549347,413.326782 472.393646,414.642426 
	C484.043884,420.031281 496.149414,420.495911 508.413055,417.295197 
	C514.101929,415.810425 514.906555,413.877228 513.178467,408.068115 
	C512.846741,406.952942 512.487366,405.843048 512.076599,404.754944 
	C510.905853,401.654144 510.513947,397.466125 508.265167,395.805817 
	C506.317352,394.367706 502.249023,395.807709 499.117493,395.965576 
	C490.756744,396.386993 481.376068,393.661957 481.246948,382.043518 
	C481.569153,367.780121 481.692932,354.265808 481.762054,340.751160 
	C481.765137,340.151215 481.271088,339.548676 481.008606,338.947327 
z"/>
<path fill="#1a4480" opacity="1.000000" stroke="none" 
	d="
M285.313446,418.228027 
	C291.858063,417.964905 298.680786,417.851013 305.496643,418.017151 
	C309.369751,418.111542 310.981995,416.353058 310.978607,412.676270 
	C310.959412,391.718170 311.424713,370.742859 310.669769,349.811493 
	C310.413971,342.719910 307.081329,335.739349 305.091248,328.343201 
	C310.215149,333.311462 312.798248,339.918365 312.880157,347.137695 
	C313.130707,369.230682 313.047913,391.328827 312.853760,413.422882 
	C312.837097,415.319611 311.088135,418.802582 310.057861,418.835236 
	C301.913269,419.093475 293.747742,418.692657 285.313446,418.228027 
z"/>
<path fill="#1a4480" opacity="1.000000" stroke="none" 
	d="
M402.305664,418.166016 
	C407.663818,417.932953 413.322784,417.820312 418.972198,418.002533 
	C422.515930,418.116852 424.082886,416.944275 424.063568,413.170319 
	C423.952026,391.382507 424.142609,369.592163 423.872894,347.807098 
	C423.822754,343.757202 422.141754,339.727478 421.169678,335.304016 
	C422.752258,339.617188 425.183075,344.214233 425.786224,349.039673 
	C426.433655,354.219879 425.051025,359.618073 425.106903,364.915314 
	C425.229553,376.545654 425.743591,388.171387 426.009735,399.800995 
	C426.123199,404.759247 426.287384,409.746033 425.860138,414.670563 
	C425.713226,416.363831 423.855865,419.280792 422.751404,419.294250 
	C416.039642,419.375793 409.319672,418.780457 402.305664,418.166016 
z"/>
<path fill="#1a4480" opacity="1.000000" stroke="none" 
	d="
M238.500397,417.989075 
	C239.147644,417.989410 239.329590,418.000885 239.784729,418.033508 
	C239.853653,418.313782 239.628830,418.553680 238.723679,418.910309 
	C230.047684,419.043335 222.031448,419.040375 214.015228,419.037415 
	C213.745850,418.838715 213.502151,418.612366 213.143341,417.695679 
	C213.009872,373.025269 213.017181,329.017578 213.250397,285.009613 
	C213.476334,285.009338 213.928162,285.015472 213.928162,285.015472 
	C213.959641,326.994751 213.995193,368.974030 214.018463,410.953308 
	C214.022202,417.718018 214.231384,417.955566 221.043503,417.972107 
	C226.707352,417.985840 232.371231,417.991150 238.500397,417.989075 
z"/>
<path fill="transparent" opacity="0.000000" stroke="none" 
	d="
M443.138306,336.483154 
	C455.974579,335.477234 455.974426,335.477234 455.969574,348.439636 
	C455.965759,358.727295 456.183899,369.021271 455.890106,379.300629 
	C455.644775,387.885254 456.580231,396.174072 459.915863,404.502563 
	C454.770081,400.288025 454.239136,393.902588 454.090546,387.761139 
	C453.754089,373.857697 453.988861,359.940491 453.990051,346.028870 
	C453.990692,338.572144 453.986176,338.606720 446.505005,337.893066 
	C445.426880,337.790192 444.398254,337.168549 443.138306,336.483154 
z"/>
<path fill="transparent" opacity="0.000000" stroke="none" 
	d="
M510.359070,335.673187 
	C510.011414,330.686829 509.781799,325.538849 510.063293,320.418945 
	C510.324951,315.659729 508.126343,314.312225 503.801605,314.565826 
	C498.683655,314.865936 493.545929,314.963379 488.418274,314.928314 
	C482.609619,314.888611 481.095703,313.232300 480.949982,307.538239 
	C480.780975,300.935699 480.529175,294.335297 480.171814,287.338501 
	C483.484711,286.211243 482.893311,288.890900 482.937592,290.651489 
	C483.071381,295.968567 483.231537,301.303986 482.934052,306.607208 
	C482.671997,311.279053 484.951813,312.992310 489.116486,312.948181 
	C494.424500,312.891968 499.744659,312.848297 505.033478,312.451324 
	C509.647308,312.105042 511.901215,313.408020 511.863678,317.980835 
	C511.815613,323.831268 511.117920,329.676392 510.359070,335.673187 
z"/>
<path fill="transparent" opacity="0.000000" stroke="none" 
	d="
M213.024475,285.009888 
	C213.017181,329.017578 213.009872,373.025269 212.991730,417.497070 
	C212.649567,416.201752 212.030975,414.442627 212.028946,412.682800 
	C211.977524,367.817261 211.985306,322.951630 212.016113,278.086060 
	C212.017120,276.617920 212.367599,275.150024 212.782959,273.794861 
	C213.015305,277.608429 213.019897,281.309174 213.024475,285.009888 
z"/>
<path fill="transparent" opacity="0.000000" stroke="none" 
	d="
M90.242767,416.564880 
	C90.021248,369.607025 90.016228,322.309143 90.012558,274.553314 
	C90.337524,275.861359 90.941566,277.626953 90.943733,279.393311 
	C90.997864,323.528778 90.993683,367.664337 90.968079,411.799866 
	C90.967224,413.274963 90.636322,414.749847 90.242767,416.564880 
z"/>
<path fill="#1a4480" opacity="1.000000" stroke="none" 
	d="
M356.321869,337.878235 
	C359.627106,336.337738 363.200562,333.899597 367.046997,333.340881 
	C372.527679,332.544739 378.237274,332.763702 383.797791,333.201263 
	C393.691437,333.979828 400.001190,343.348755 398.236145,350.697601 
	C395.389984,336.960602 388.309601,334.523071 372.829132,334.719360 
	C367.444519,334.787628 362.083710,336.732208 356.321869,337.878235 
z"/>
<path fill="#1a4480" opacity="1.000000" stroke="none" 
	d="
M241.939529,320.584686 
	C240.958191,319.184174 239.153961,317.328125 239.163269,315.481201 
	C239.233200,301.617981 239.660767,287.756500 239.964050,273.465820 
	C240.575455,274.068298 241.731384,275.093597 241.742859,276.131531 
	C241.905136,290.797791 241.912003,305.465790 241.939529,320.584686 
z"/>
<path fill="#1a4480" opacity="1.000000" stroke="none" 
	d="
M394.669861,352.122925 
	C393.047455,352.757874 390.947540,353.841949 388.839661,353.857758 
	C376.640717,353.949127 364.390625,353.325012 352.285431,357.814880 
	C355.525055,356.243835 359.058044,353.569794 362.795959,353.243591 
	C373.214752,352.334351 383.718475,352.398712 394.669861,352.122925 
z"/>
<path fill="#1a4480" opacity="1.000000" stroke="none" 
	d="
M337.637756,367.063171 
	C334.156494,373.923126 329.852081,380.769379 331.062683,389.206635 
	C331.740082,393.927673 332.910034,398.578033 333.916321,403.646576 
	C333.226654,403.424103 332.230621,402.962372 331.769135,402.183777 
	C327.156555,394.401093 328.465118,376.733307 334.207001,369.506317 
	C334.989441,368.521454 336.257629,367.922607 337.637756,367.063171 
z"/>
<path fill="#1a4480" opacity="1.000000" stroke="none" 
	d="
M285.960175,313.449524 
	C280.004395,313.180634 273.904785,312.078125 267.821686,312.162903 
	C263.438477,312.224030 259.077271,313.866699 254.324097,314.850983 
	C255.500351,313.759033 257.014526,311.711914 258.624634,311.633453 
	C266.951172,311.227631 275.302490,311.278259 283.644165,311.329956 
	C284.374237,311.334442 285.097168,312.498718 285.960175,313.449524 
z"/>
<path fill="transparent" opacity="0.000000" stroke="none" 
	d="
M283.012756,354.484192 
	C283.340088,355.945343 283.942078,357.872375 283.948395,359.801361 
	C284.010651,378.877838 283.974213,397.954651 283.959106,417.495300 
	C283.633667,415.864532 283.045441,413.770844 283.038025,411.675079 
	C282.971100,392.767212 283.005951,373.859039 283.012756,354.484192 
z"/>
<path fill="#1a4480" opacity="1.000000" stroke="none" 
	d="
M213.250397,285.009613 
	C213.019897,281.309174 213.015305,277.608429 213.007538,273.445099 
	C216.420090,272.318909 219.813141,271.299438 223.257217,271.079651 
	C227.809464,270.789154 232.404266,271.062012 236.974518,271.247070 
	C237.850388,271.282532 238.697342,272.032074 239.766632,272.748840 
	C233.652725,273.028809 227.329788,272.986938 221.006973,273.002380 
	C214.335892,273.018677 214.019241,273.365265 214.003448,280.104675 
	C214.000336,281.435760 213.984543,282.766846 213.951385,284.556702 
	C213.928162,285.015472 213.476334,285.009338 213.250397,285.009613 
z"/>
<path fill="#1a4480" opacity="1.000000" stroke="none" 
	d="
M531.153564,454.301758 
	C541.296143,458.169403 551.708069,457.687866 562.602661,455.004456 
	C556.306152,460.456207 537.920227,460.429474 531.153564,454.301758 
z"/>
<path fill="transparent" opacity="0.000000" stroke="none" 
	d="
M455.618011,287.179810 
	C455.967468,293.550537 456.064026,300.101501 455.923187,306.647400 
	C455.887390,308.312805 455.097656,309.962006 454.300781,311.776520 
	C453.958435,305.440460 453.882385,298.944489 454.039795,292.454132 
	C454.081177,290.746460 454.844940,289.056335 455.618011,287.179810 
z"/>
<path fill="transparent" opacity="0.000000" stroke="none" 
	d="
M441.674042,313.764221 
	C439.083130,315.100525 437.624695,316.940643 437.915039,320.309998 
	C438.237610,324.052826 437.788269,327.862183 438.110992,331.604980 
	C438.240509,333.106628 439.531525,334.508148 440.681427,336.066711 
	C439.756958,336.661713 438.444977,337.145233 436.869232,337.725952 
	C436.869232,330.147217 437.005768,323.468628 436.816010,316.799316 
	C436.708923,313.035919 438.355133,312.503571 441.674042,313.764221 
z"/>
<path fill="transparent" opacity="0.000000" stroke="none" 
	d="
M214.302948,419.286133 
	C222.031448,419.040375 230.047684,419.043335 238.531525,419.065247 
	C238.562897,419.569000 238.112793,420.487640 237.692505,420.474182 
	C229.989746,420.227692 222.290573,419.869446 214.302948,419.286133 
z"/>
<path fill="#1a4480" opacity="1.000000" stroke="none" 
	d="
M344.141052,414.296326 
	C350.598633,416.071655 357.161682,418.174561 363.934235,420.586121 
	C356.964539,420.539429 349.861572,419.942322 344.141052,414.296326 
z"/>
<path fill="#1a4480" opacity="1.000000" stroke="none" 
	d="
M369.351105,420.340027 
	C374.747040,418.787750 380.487457,417.416595 386.614197,416.022736 
	C382.007233,420.473328 376.097931,421.440948 369.351105,420.340027 
z"/>
<path fill="#1a4480" opacity="1.000000" stroke="none" 
	d="
M413.808197,322.747925 
	C408.454559,320.206146 402.931885,317.370544 397.211853,314.251953 
	C402.556030,316.797333 408.097565,319.625702 413.808197,322.747925 
z"/>
<path fill="#1a4480" opacity="1.000000" stroke="none" 
	d="
M342.013245,342.291992 
	C345.439178,340.719360 348.891541,339.470581 352.706238,338.196930 
	C350.333527,340.124481 347.664825,342.186462 344.798401,343.921906 
	C344.318359,344.212524 342.980957,343.086975 342.013245,342.291992 
z"/>
<path fill="#1a4480" opacity="1.000000" stroke="none" 
	d="
M379.878937,311.494293 
	C376.342590,311.845032 372.593323,311.888184 368.374390,311.892822 
	C371.658844,308.702271 375.639740,309.544403 379.878937,311.494293 
z"/>
<path fill="#1a4480" opacity="1.000000" stroke="none" 
	d="
M358.651733,312.045959 
	C354.955505,313.671478 350.863739,315.309937 346.384277,316.964478 
	C350.083130,315.340057 354.169678,313.699493 358.651733,312.045959 
z"/>
<path fill="#ff0080" opacity="1.000000" stroke="none" 
	d="
M478.091919,102.565407 
	C475.478790,101.602272 470.897888,103.621696 470.286316,98.066879 
	C472.855469,99.210205 475.383118,100.745705 478.091919,102.565407 
z"/>
<path fill="#ff0080" opacity="1.000000" stroke="none" 
	d="
M370.238464,222.087830 
	C373.493896,220.137878 374.237549,220.485092 375.921204,224.899658 
	C374.090393,224.311325 372.252045,223.347336 370.238464,222.087830 
z"/>
<path fill="#1a4480" opacity="1.000000" stroke="none" 
	d="
M334.702515,323.106995 
	C334.358521,325.116791 333.673004,327.194031 332.982239,329.653137 
	C329.145477,327.438263 329.372009,326.315460 334.702515,323.106995 
z"/>
<path fill="#1a4480" opacity="1.000000" stroke="none" 
	d="
M532.712646,442.258545 
	C532.370789,445.728119 531.789307,449.471527 531.128784,453.599182 
	C531.524109,450.166412 531.998535,446.349396 532.712646,442.258545 
z"/>
<path fill="#1a4480" opacity="1.000000" stroke="none" 
	d="
M249.642639,316.999725 
	C247.834976,318.413239 245.665482,319.852844 243.251556,321.149841 
	C245.098358,319.680115 247.189590,318.352936 249.642639,316.999725 
z"/>
<path fill="#ff0080" opacity="1.000000" stroke="none" 
	d="
M361.489502,215.305878 
	C364.637207,214.823593 367.160675,215.766724 367.914581,219.759644 
	C365.827332,218.614075 363.728790,217.097427 361.489502,215.305878 
z"/>
<path fill="transparent" opacity="0.000000" stroke="none" 
	d="
M452.586609,313.042725 
	C451.194183,313.491211 449.410431,313.925690 447.338806,314.153992 
	C448.765686,313.641418 450.480469,313.335052 452.586609,313.042725 
z"/>
<path fill="#1a4480" opacity="1.000000" stroke="none" 
	d="
M534.758057,435.250580 
	C534.506287,437.159241 533.953247,439.281830 533.181641,441.687286 
	C533.460999,439.801636 533.958923,437.633087 534.758057,435.250580 
z"/>
<path fill="#1a4480" opacity="1.000000" stroke="none" 
	d="
M346.644012,360.012024 
	C345.553650,360.976562 344.116821,361.956146 342.334290,362.955383 
	C343.424896,361.992401 344.861237,361.009735 346.644012,360.012024 
z"/>
<path fill="#1a4480" opacity="1.000000" stroke="none" 
	d="
M387.358368,415.983002 
	C388.438843,415.033875 389.877716,414.067719 391.648010,413.042419 
	C390.558563,413.977539 389.137634,414.971741 387.358368,415.983002 
z"/>
<path fill="#1a4480" opacity="1.000000" stroke="none" 
	d="
M301.983459,323.630188 
	C300.795135,322.828430 299.581390,321.667206 298.222656,320.222595 
	C299.371155,321.049713 300.664612,322.160187 301.983459,323.630188 
z"/>
<path fill="#1a4480" opacity="1.000000" stroke="none" 
	d="
M418.002930,328.621399 
	C417.066620,327.855682 416.102264,326.741852 415.074280,325.309265 
	C415.998749,326.084747 416.986786,327.179016 418.002930,328.621399 
z"/>
<path fill="#1a4480" opacity="1.000000" stroke="none" 
	d="
M333.970581,331.401459 
	C334.904449,332.165710 335.872650,333.275696 336.903809,334.705109 
	C335.979462,333.932098 334.992218,332.839630 333.970581,331.401459 
z"/>
<path fill="transparent" opacity="0.000000" stroke="none" 
	d="
M460.136658,405.399078 
	C461.041107,406.118927 461.946136,407.178162 462.918518,408.530823 
	C462.036285,407.795685 461.086761,406.767090 460.136658,405.399078 
z"/>
<path fill="#1a4480" opacity="1.000000" stroke="none" 
	d="
M364.780579,311.733521 
	C363.859650,312.058685 362.671722,312.209900 361.234863,312.178894 
	C362.161804,311.851013 363.337738,311.705292 364.780579,311.733521 
z"/>
<path fill="#1a4480" opacity="1.000000" stroke="none" 
	d="
M297.964478,319.594513 
	C297.079346,319.160736 296.103760,318.415649 295.040039,317.355957 
	C295.925934,317.788666 296.899994,318.535950 297.964478,319.594513 
z"/>
<path fill="#1a4480" opacity="1.000000" stroke="none" 
	d="
M392.343628,412.965210 
	C393.134521,412.054443 394.276459,411.129242 395.725891,410.127563 
	C394.920441,411.017639 393.807526,411.984192 392.343628,412.965210 
z"/>
<path fill="#1a4480" opacity="1.000000" stroke="none" 
	d="
M399.844238,413.200500 
	C400.309509,413.774414 400.606171,414.583862 400.893616,415.725739 
	C400.481445,415.184113 400.078552,414.310059 399.844238,413.200500 
z"/>
<path fill="#1a4480" opacity="1.000000" stroke="none" 
	d="
M393.942200,313.510437 
	C393.142883,313.395966 392.190887,313.006073 391.113708,312.311707 
	C391.922211,312.416504 392.855865,312.825745 393.942200,313.510437 
z"/>
<path fill="#1a4480" opacity="1.000000" stroke="none" 
	d="
M419.998657,331.673981 
	C419.399414,331.202881 418.769379,330.401215 418.089294,329.286499 
	C418.682098,329.763428 419.325012,330.553436 419.998657,331.673981 
z"/>
<path fill="#1a4480" opacity="1.000000" stroke="none" 
	d="
M339.648499,320.005402 
	C339.190277,320.611694 338.402649,321.244446 337.307892,321.936462 
	C337.773560,321.341095 338.546326,320.686493 339.648499,320.005402 
z"/>
<path fill="#1a4480" opacity="1.000000" stroke="none" 
	d="
M341.103302,412.303894 
	C341.876190,412.481262 342.771454,412.963257 343.842285,413.704285 
	C343.087128,413.511688 342.156433,413.060150 341.103302,412.303894 
z"/>
<path fill="#1a4480" opacity="1.000000" stroke="none" 
	d="
M304.992798,327.650970 
	C304.391571,327.188690 303.759094,326.397888 303.065979,325.299316 
	C303.657379,325.768555 304.309448,326.545471 304.992798,327.650970 
z"/>
<path fill="#1a4480" opacity="1.000000" stroke="none" 
	d="
M334.977417,405.386353 
	C335.579712,405.843353 336.223358,406.625641 336.927368,407.718445 
	C336.331390,407.256531 335.675079,406.484070 334.977417,405.386353 
z"/>
<path fill="#1a4480" opacity="1.000000" stroke="none" 
	d="
M294.835632,316.810608 
	C294.142029,316.804901 293.310516,316.559906 292.240967,316.084167 
	C292.901215,316.092712 293.799469,316.332031 294.835632,316.810608 
z"/>
<path fill="#1a4480" opacity="1.000000" stroke="none" 
	d="
M337.002686,335.353455 
	C337.597626,335.823883 338.221313,336.622345 338.900146,337.731995 
	C338.313995,337.255951 337.672729,336.468719 337.002686,335.353455 
z"/>
<path fill="#1a4480" opacity="1.000000" stroke="none" 
	d="
M568.238342,452.874451 
	C568.431152,452.354828 568.918274,451.750366 569.695801,451.055176 
	C569.501709,451.572845 569.017151,452.181244 568.238342,452.874451 
z"/>
<path fill="#ff0080" opacity="1.000000" stroke="none" 
	d="
M491.947205,115.658188 
	C491.432953,115.421227 490.848755,114.889603 490.205078,114.051514 
	C490.722809,114.284538 491.300018,114.824036 491.947205,115.658188 
z"/>
<path fill="#ff0080" opacity="1.000000" stroke="none" 
	d="
M470.138672,97.442963 
	C469.627014,97.387566 468.958862,97.107597 468.171204,96.566956 
	C468.695160,96.610321 469.338684,96.914345 470.138672,97.442963 
z"/>
<path fill="#1a4480" opacity="1.000000" stroke="none" 
	d="
M345.661743,317.003662 
	C345.216675,317.328918 344.447937,317.668274 343.355835,318.022217 
	C343.800995,317.697174 344.569550,317.357452 345.661743,317.003662 
z"/>
<path fill="#1a4480" opacity="1.000000" stroke="none" 
	d="
M563.277954,454.949127 
	C563.485168,454.715210 563.973267,454.419006 564.748657,454.075500 
	C564.543579,454.314392 564.051208,454.600616 563.277954,454.949127 
z"/>
<path fill="#1a4480" opacity="1.000000" stroke="none" 
	d="
M566.218628,453.918182 
	C566.420959,453.665192 566.911987,453.354401 567.694580,452.997314 
	C567.493225,453.254150 567.000366,453.557251 566.218628,453.918182 
z"/>
<path fill="#1a4480" opacity="1.000000" stroke="none" 
	d="
M570.254028,450.927063 
	C570.450134,450.677246 570.928955,450.367920 571.691833,450.003387 
	C571.496155,450.254639 571.016418,450.561096 570.254028,450.927063 
z"/>
<path fill="#1a4480" opacity="1.000000" stroke="none" 
	d="
M399.048340,409.293213 
	C399.281433,409.496979 399.580841,409.976074 399.914307,410.742737 
	C399.670471,410.543030 399.392578,410.055817 399.048340,409.293213 
z"/>
<path fill="#1a4480" opacity="1.000000" stroke="none" 
	d="
M341.717957,319.069031 
	C341.518097,319.309387 341.039276,319.601440 340.277039,319.934631 
	C340.475403,319.690796 340.957184,319.405792 341.717957,319.069031 
z"/>
<path fill="#1a4480" opacity="1.000000" stroke="none" 
	d="
M336.715973,322.059937 
	C336.524414,322.310150 336.053314,322.619720 335.300171,322.983826 
	C335.490906,322.732025 335.963684,322.425659 336.715973,322.059937 
z"/>
<path fill="#1a4480" opacity="1.000000" stroke="none" 
	d="
M348.742371,359.041840 
	C348.540710,359.283722 348.055634,359.583588 347.286560,359.937317 
	C347.488037,359.694061 347.973511,359.396912 348.742371,359.041840 
z"/>
<path fill="#1a4480" opacity="1.000000" stroke="none" 
	d="
M340.015442,339.347412 
	C340.259369,339.534302 340.577026,339.994141 340.968445,340.728271 
	C340.724487,340.541840 340.406799,340.081085 340.015442,339.347412 
z"/>
<path fill="#1a4480" opacity="1.000000" stroke="none" 
	d="
M414.947571,324.714142 
	C414.700043,324.521973 414.391815,324.050232 414.023926,323.297607 
	C414.271820,323.489349 414.579346,323.961945 414.947571,324.714142 
z"/>
<path fill="#1a4480" opacity="1.000000" stroke="none" 
	d="
M596.007202,330.995850 
	C596.014282,330.991150 595.939636,330.923309 595.965332,330.969025 
	C595.991089,331.014740 596.000183,331.000549 596.007202,330.995850 
z"/>
<path fill="#1a4480" opacity="1.000000" stroke="none" 
	d="
M342.825867,318.168579 
	C342.867432,318.315704 342.666016,318.553345 342.214233,318.872833 
	C342.184692,318.733459 342.391052,318.501617 342.825867,318.168579 
z"/>
<path fill="#1a4480" opacity="1.000000" stroke="none" 
	d="
M572.155151,449.829437 
	C572.104004,449.675049 572.303528,449.423431 572.769043,449.091797 
	C572.799500,449.234100 572.589722,449.474243 572.155151,449.829437 
z"/>
<path fill="#1a4480" opacity="1.000000" stroke="none" 
	d="
M573.164185,448.814087 
	C573.168640,448.702942 573.372131,448.429138 573.774414,447.989014 
	C573.769897,448.098969 573.566589,448.375183 573.164185,448.814087 
z"/>
<path fill="#1a4480" opacity="1.000000" stroke="none" 
	d="
M535.843750,434.119751 
	C535.902344,434.276520 535.707642,434.542908 535.239868,434.896729 
	C535.204346,434.751068 535.412292,434.499481 535.843750,434.119751 
z"/>
<path fill="#1a4480" opacity="1.000000" stroke="none" 
	d="
M302.863403,324.808594 
	C302.723389,324.843109 302.479309,324.641541 302.141235,324.195129 
	C302.275024,324.171234 302.512390,324.378662 302.863403,324.808594 
z"/>
<path fill="#1a4480" opacity="1.000000" stroke="none" 
	d="
M597.006104,327.996277 
	C597.012207,327.992279 596.937866,327.917908 596.965088,327.965271 
	C596.992371,328.012665 597.000000,328.000305 597.006104,327.996277 
z"/>
<path fill="#1a4480" opacity="1.000000" stroke="none" 
	d="
M601.994019,390.003906 
	C601.988098,390.007874 602.061218,390.092773 602.034424,390.040375 
	C602.007629,389.987976 602.000000,389.999969 601.994019,390.003906 
z"/>
<path fill="#1a4480" opacity="1.000000" stroke="none" 
	d="
M341.794800,363.131226 
	C341.826019,363.267975 341.624695,363.508392 341.185669,363.846497 
	C341.161224,363.713867 341.366028,363.477448 341.794800,363.131226 
z"/>
<path fill="#1a4480" opacity="1.000000" stroke="none" 
	d="
M340.791565,364.130310 
	C340.822937,364.267029 340.622101,364.506348 340.183777,364.842285 
	C340.159637,364.710114 340.364014,364.474792 340.791565,364.130310 
z"/>
<path fill="transparent" opacity="0.000000" stroke="none" 
	d="
M463.270782,409.216705 
	C463.378296,409.191467 463.565125,409.347473 463.826050,409.687439 
	C463.721466,409.707153 463.538116,409.549316 463.270782,409.216705 
z"/>
<path fill="#1a4480" opacity="1.000000" stroke="none" 
	d="
M396.221771,409.872375 
	C396.187347,409.735016 396.384308,409.493988 396.819000,409.156311 
	C396.844452,409.288025 396.643219,409.524384 396.221771,409.872375 
z"/>
<path fill="#1a4480" opacity="1.000000" stroke="none" 
	d="
M397.270599,409.026794 
	C397.231659,408.762695 397.484650,408.691071 397.894958,408.908752 
	C398.005554,409.004730 397.515747,409.026001 397.270599,409.026794 
z"/>
<path fill="#1a4480" opacity="1.000000" stroke="none" 
	d="
M339.787445,365.129639 
	C339.818878,365.265686 339.619293,365.505493 339.183228,365.842957 
	C339.158905,365.711334 339.362091,365.475555 339.787445,365.129639 
z"/>
<path fill="#1a4480" opacity="1.000000" stroke="none" 
	d="
M338.788513,366.130859 
	C338.820221,366.266968 338.620850,366.508179 338.185028,366.848572 
	C338.160095,366.716583 338.363037,366.479340 338.788513,366.130859 
z"/>
<path fill="transparent" opacity="0.000000" stroke="none" 
	d="
M457.868011,286.846710 
	C457.979126,286.924805 457.491638,286.942505 457.248627,286.929016 
	C457.230927,286.721130 457.481354,286.672150 457.868011,286.846710 
z"/>
<path fill="#1a4480" opacity="1.000000" stroke="none" 
	d="
M553.997070,387.995544 
	C553.994080,387.991119 553.899231,388.057281 553.954102,388.031677 
	C554.008911,388.006042 554.000000,388.000000 553.997070,387.995544 
z"/>
<path fill="transparent" opacity="0.000000" stroke="none" 
	d="
M378.631226,401.395355 
	C372.870544,400.310516 367.042084,402.299347 362.147614,397.808105 
	C354.028564,390.357971 355.060730,378.291199 365.148956,373.654205 
	C369.693268,371.565460 374.989105,370.826019 380.034027,370.198090 
	C384.451355,369.648285 388.994781,370.128418 393.482452,370.121552 
	C397.184357,370.115906 398.633270,371.977631 399.045654,375.624664 
	C400.932709,392.312988 391.722290,398.794037 378.631226,401.395355 
z"/>
<path fill="#1a4480" opacity="1.000000" stroke="none" 
	d="
M481.003876,339.421387 
	C481.271088,339.548676 481.765137,340.151215 481.762054,340.751160 
	C481.692932,354.265808 481.569153,367.780121 481.242981,381.647766 
	C481.019897,367.965790 481.009521,353.930634 481.003876,339.421387 
z"/>
</svg>
