<svg version="1.1" id="Layer_1" xmlns="http://www.w3.org/2000/svg" xmlns:xlink="http://www.w3.org/1999/xlink" x="0px" y="0px"
	 width="100%" viewBox="0 0 466 479" style="background: transparent;" xml:space="preserve">
<path fill="transparent" opacity="0.000000" stroke="none" 
	d="
M273.000000,480.000000 
	C182.000000,480.000000 91.500000,480.000000 1.000000,480.000000 
	C1.000000,320.333344 1.000000,160.666672 1.000000,1.000000 
	C156.333328,1.000000 311.666656,1.000000 467.000000,1.000000 
	C467.000000,160.666672 467.000000,320.333344 467.000000,480.000000 
	C402.500000,480.000000 338.000000,480.000000 273.000000,480.000000 
M315.950989,367.575470 
	C333.227112,362.226746 348.735748,353.798920 361.914856,341.278595 
	C384.901337,319.441223 398.444977,292.946533 399.025940,261.056519 
	C399.733063,222.241272 399.267303,183.404297 399.267029,144.576721 
	C399.266907,128.182144 395.967224,112.349319 388.404358,97.888062 
	C366.090302,55.220440 331.358582,31.665201 282.402374,31.348566 
	C243.077011,31.094225 203.746475,30.994911 164.423706,31.381979 
	C152.852982,31.495872 141.007370,32.243954 129.790924,34.859344 
	C80.468613,46.360058 43.236217,93.584076 42.968910,144.245483 
	C42.766682,182.572632 42.877350,220.901840 42.981606,259.229767 
	C42.995586,264.370483 43.320015,269.599884 44.294888,274.634430 
	C52.855148,318.842194 78.709633,348.953522 119.819748,366.371368 
	C122.947227,367.696442 124.042328,369.298553 124.005791,372.647034 
	C123.876724,384.475922 124.146439,396.308655 124.088531,408.139038 
	C124.057274,414.525940 126.247780,419.650696 132.031250,422.590332 
	C137.729446,425.486664 142.844879,423.859283 147.750015,420.058502 
	C167.098328,405.066193 186.503906,390.145660 206.057571,375.423431 
	C208.372467,373.680542 211.718124,372.499695 214.607025,372.456207 
	C234.433212,372.157410 254.265015,372.211395 274.095032,372.192108 
	C287.946472,372.178619 301.737335,371.668945 315.950989,367.575470 
z"/>
<path fill="#00ff41" opacity="1.000000" stroke="none" 
	d="
M315.555969,367.657318 
	C301.737335,371.668945 287.946472,372.178619 274.095032,372.192108 
	C254.265015,372.211395 234.433212,372.157410 214.607025,372.456207 
	C211.718124,372.499695 208.372467,373.680542 206.057571,375.423431 
	C186.503906,390.145660 167.098328,405.066193 147.750015,420.058502 
	C142.844879,423.859283 137.729446,425.486664 132.031250,422.590332 
	C126.247780,419.650696 124.057274,414.525940 124.088531,408.139038 
	C124.146439,396.308655 123.876724,384.475922 124.005791,372.647034 
	C124.042328,369.298553 122.947227,367.696442 119.819748,366.371368 
	C78.709633,348.953522 52.855148,318.842194 44.294888,274.634430 
	C43.320015,269.599884 42.995586,264.370483 42.981606,259.229767 
	C42.877350,220.901840 42.766682,182.572632 42.968910,144.245483 
	C43.236217,93.584076 80.468613,46.360058 129.790924,34.859344 
	C141.007370,32.243954 152.852982,31.495872 164.423706,31.381979 
	C203.746475,30.994911 243.077011,31.094225 282.402374,31.348566 
	C331.358582,31.665201 366.090302,55.220440 388.404358,97.888062 
	C395.967224,112.349319 399.266907,128.182144 399.267029,144.576721 
	C399.267303,183.404297 399.733063,222.241272 399.025940,261.056519 
	C398.444977,292.946533 384.901337,319.441223 361.914856,341.278595 
	C348.735748,353.798920 333.227112,362.226746 315.555969,367.657318 
M305.061279,239.918259 
	C305.061279,239.918259 305.183655,239.890228 304.859314,239.312500 
	C304.236084,239.140579 303.612885,238.968674 303.077362,238.936020 
	C303.077362,238.936020 303.215393,238.846466 302.893005,238.199768 
	C297.457306,237.115189 292.035889,235.186478 286.583374,235.094055 
	C264.514404,234.719971 242.433151,235.086838 220.363129,234.745926 
	C215.924530,234.677383 211.515198,232.713013 206.842392,231.171188 
	C206.299896,230.759201 205.757401,230.347229 204.927048,229.215546 
	C201.383743,224.426941 203.420639,219.367828 204.170151,214.351654 
	C205.779877,203.578598 207.333511,192.797165 209.032867,181.612106 
	C209.032867,181.612106 209.058167,181.187714 209.698944,180.754379 
	C212.501923,163.522476 215.579239,146.329239 218.014557,129.045532 
	C219.731918,116.857368 215.983963,106.315430 204.909943,99.977592 
	C193.110489,93.224564 181.080109,93.659241 169.524841,101.378464 
	C169.524841,101.378464 169.545990,101.444221 168.895966,101.626869 
	C166.524323,104.033829 164.152695,106.440788 161.851837,108.871880 
	C161.851837,108.871880 161.851273,108.797104 161.287613,109.188972 
	C159.717163,112.282257 157.440170,115.216675 156.702545,118.497215 
	C153.978760,130.611023 151.763901,142.839294 149.014679,155.735641 
	C144.464752,180.429840 139.589935,205.070236 135.489334,229.838821 
	C133.109756,244.212036 137.482452,257.149048 146.923050,269.005768 
	C158.771530,283.303284 173.694168,292.526794 192.500763,296.598053 
	C194.004913,296.761841 195.509064,296.925629 197.726608,297.350464 
	C198.477463,297.354492 199.228317,297.358521 200.894089,297.581329 
	C229.332748,297.602142 257.773407,297.798492 286.208069,297.471832 
	C290.971191,297.417145 295.708313,295.095245 301.000275,293.575378 
	C301.191010,293.085785 301.381714,292.596191 302.345520,292.125671 
	C303.977203,290.819031 305.608917,289.512390 307.145874,288.090057 
	C307.145874,288.090057 307.031586,288.186493 307.614777,288.038757 
	C307.798035,287.700195 307.981323,287.361633 308.053986,287.163513 
	C308.053986,287.163513 308.195038,287.273315 308.872253,287.139221 
	C322.813904,275.025299 321.248260,249.435715 305.525024,239.932648 
	C305.362061,239.886871 305.199066,239.841080 305.061279,239.918259 
z"/>
<path fill="#ff0080" opacity="1.000000" stroke="none" 
	d="
M205.214905,229.935257 
	C205.757401,230.347229 206.299896,230.759201 207.044952,231.757828 
	C209.964066,237.043488 214.703949,236.816788 219.108643,236.970596 
	C247.135681,237.949219 275.249054,235.042892 303.215393,238.846466 
	C303.215393,238.846466 303.077362,238.936020 303.262451,239.083908 
	C304.026215,239.451279 304.604950,239.670761 305.183655,239.890228 
	C305.183655,239.890228 305.061279,239.918259 305.182159,240.085983 
	C305.526794,240.524338 305.750519,240.794952 306.066345,241.390549 
	C306.302185,242.013702 306.382385,242.371735 306.598785,242.601456 
	C317.840118,254.536087 319.125854,267.322632 310.614136,281.341827 
	C309.519806,283.144165 308.987640,285.287781 308.195038,287.273315 
	C308.195038,287.273315 308.053986,287.163513 307.908569,287.274170 
	C307.519318,287.652069 307.275452,287.919281 307.031586,288.186493 
	C307.031586,288.186493 307.145874,288.090057 306.814758,288.124817 
	C304.846558,289.475250 303.209503,290.790924 301.572449,292.106598 
	C301.381714,292.596191 301.191010,293.085785 300.325409,293.483826 
	C298.829163,293.350830 297.999756,293.214111 297.187622,293.282440 
	C286.646515,294.169800 276.122345,295.427917 265.563507,295.875641 
	C258.492737,296.175415 251.371017,295.014465 244.276657,295.071838 
	C229.555069,295.190826 214.836517,295.685760 199.778320,295.820923 
	C197.605362,295.429840 195.770798,295.243927 193.645508,295.044800 
	C192.968750,295.026794 192.582703,295.021942 191.881775,294.811920 
	C180.100372,290.971436 168.991470,286.555450 159.659561,278.708435 
	C155.264847,275.013000 151.213989,270.908661 146.933441,266.643127 
	C146.518158,265.541962 146.276016,264.720490 145.820175,264.042755 
	C140.219696,255.716370 136.173523,246.576508 137.200806,236.538132 
	C138.669266,222.188568 141.180450,207.929794 143.661331,193.704620 
	C145.804550,181.415482 148.526917,169.227341 151.029297,156.592484 
	C151.413361,154.398315 151.746567,152.603210 152.111816,150.814621 
	C154.334610,139.929367 156.483658,129.027985 158.842590,118.172256 
	C159.536255,114.980019 160.831650,111.918518 161.851273,108.797104 
	C161.851273,108.797104 161.851837,108.871880 162.219818,108.900940 
	C168.760315,110.016296 167.584381,104.272057 169.545990,101.444221 
	C169.545990,101.444221 169.524841,101.378464 169.949615,101.498993 
	C173.687973,100.645615 176.963242,99.507362 180.321411,98.724808 
	C200.456406,94.032799 217.654282,105.713486 215.921280,126.798157 
	C215.214188,135.400879 213.717651,143.937531 212.626236,152.510101 
	C211.409622,162.065842 210.245255,171.628220 209.058167,181.187714 
	C209.058167,181.187714 209.032867,181.612106 208.759644,182.117599 
	C207.990784,184.371155 207.351837,186.092834 207.024063,187.871826 
	C205.548691,195.879562 204.105286,203.894135 202.765701,211.925491 
	C202.060135,216.155640 201.116135,220.439285 201.240585,224.670517 
	C201.293320,226.462845 203.815231,228.182556 205.214905,229.935257 
z"/>
<path fill="#ff0080" opacity="1.000000" stroke="none" 
	d="
M209.378540,180.971039 
	C210.245255,171.628220 211.409622,162.065842 212.626236,152.510101 
	C213.717651,143.937531 215.214188,135.400879 215.921280,126.798157 
	C217.654282,105.713486 200.456406,94.032799 180.321411,98.724808 
	C176.963242,99.507362 173.687973,100.645615 169.978516,101.480080 
	C181.080109,93.659241 193.110489,93.224564 204.909943,99.977592 
	C215.983963,106.315430 219.731918,116.857368 218.014557,129.045532 
	C215.579239,146.329239 212.501923,163.522476 209.378540,180.971039 
z"/>
<path fill="#ff0080" opacity="1.000000" stroke="none" 
	d="
M200.116714,296.026123 
	C214.836517,295.685760 229.555069,295.190826 244.276657,295.071838 
	C251.371017,295.014465 258.492737,296.175415 265.563507,295.875641 
	C276.122345,295.427917 286.646515,294.169800 297.187622,293.282440 
	C297.999756,293.214111 298.829163,293.350830 300.053986,293.606598 
	C295.708313,295.095245 290.971191,297.417145 286.208069,297.471832 
	C257.773407,297.798492 229.332748,297.602142 200.450211,297.248230 
	C200.039246,296.618286 200.076035,296.321960 200.116714,296.026123 
z"/>
<path fill="#ff0080" opacity="1.000000" stroke="none" 
	d="
M150.993240,156.994553 
	C148.526917,169.227341 145.804550,181.415482 143.661331,193.704620 
	C141.180450,207.929794 138.669266,222.188568 137.200806,236.538132 
	C136.173523,246.576508 140.219696,255.716370 145.820175,264.042755 
	C146.276016,264.720490 146.518158,265.541962 146.894196,266.980225 
	C146.902222,267.888397 146.875626,268.113007 146.849045,268.337585 
	C137.482452,257.149048 133.109756,244.212036 135.489334,229.838821 
	C139.589935,205.070236 144.464752,180.429840 149.437408,155.727859 
	C150.237823,156.144897 150.615540,156.569733 150.993240,156.994553 
z"/>
<path fill="#ff0080" opacity="1.000000" stroke="none" 
	d="
M303.054199,238.523117 
	C275.249054,235.042892 247.135681,237.949219 219.108643,236.970596 
	C214.703949,236.816788 209.964066,237.043488 207.169937,231.983612 
	C211.515198,232.713013 215.924530,234.677383 220.363129,234.745926 
	C242.433151,235.086838 264.514404,234.719971 286.583374,235.094055 
	C292.035889,235.186478 297.457306,237.115189 303.054199,238.523117 
z"/>
<path fill="#ff0080" opacity="1.000000" stroke="none" 
	d="
M308.533630,287.206268 
	C308.987640,285.287781 309.519806,283.144165 310.614136,281.341827 
	C319.125854,267.322632 317.840118,254.536087 306.598785,242.601456 
	C306.382385,242.371735 306.302185,242.013702 306.073914,241.154709 
	C305.989410,240.593903 305.995728,240.123520 305.995728,240.123520 
	C321.248260,249.435715 322.813904,275.025299 308.533630,287.206268 
z"/>
<path fill="#ff0080" opacity="1.000000" stroke="none" 
	d="
M146.886047,268.671692 
	C146.875626,268.113007 146.902222,267.888397 146.968079,267.326691 
	C151.213989,270.908661 155.264847,275.013000 159.659561,278.708435 
	C168.991470,286.555450 180.100372,290.971436 191.807892,295.125092 
	C192.010422,295.854279 191.971970,296.065155 191.933502,296.276001 
	C173.694168,292.526794 158.771530,283.303284 146.886047,268.671692 
z"/>
<path fill="#ff0080" opacity="1.000000" stroke="none" 
	d="
M151.029297,156.592484 
	C150.615540,156.569733 150.237823,156.144897 149.608917,155.372299 
	C151.763901,142.839294 153.978760,130.611023 156.702545,118.497215 
	C157.440170,115.216675 159.717163,112.282257 161.569443,108.993042 
	C160.831650,111.918518 159.536255,114.980019 158.842590,118.172256 
	C156.483658,129.027985 154.334610,139.929367 152.111816,150.814621 
	C151.746567,152.603210 151.413361,154.398315 151.029297,156.592484 
z"/>
<path fill="#ff0080" opacity="1.000000" stroke="none" 
	d="
M205.070984,229.575409 
	C203.815231,228.182556 201.293320,226.462845 201.240585,224.670517 
	C201.116135,220.439285 202.060135,216.155640 202.765701,211.925491 
	C204.105286,203.894135 205.548691,195.879562 207.024063,187.871826 
	C207.351837,186.092834 207.990784,184.371155 208.698273,182.321121 
	C207.333511,192.797165 205.779877,203.578598 204.170151,214.351654 
	C203.420639,219.367828 201.383743,224.426941 205.070984,229.575409 
z"/>
<path fill="#ff0080" opacity="1.000000" stroke="none" 
	d="
M169.220978,101.535545 
	C167.584381,104.272057 168.760315,110.016296 162.184433,108.888870 
	C164.152695,106.440788 166.524323,104.033829 169.220978,101.535545 
z"/>
<path fill="#ff0080" opacity="1.000000" stroke="none" 
	d="
M199.778320,295.820923 
	C200.076035,296.321960 200.039246,296.618286 199.992752,297.138824 
	C199.228317,297.358521 198.477463,297.354492 197.191650,297.028198 
	C195.749863,296.156616 194.843063,295.607300 193.936249,295.057983 
	C195.770798,295.243927 197.605362,295.429840 199.778320,295.820923 
z"/>
<path fill="#ff0080" opacity="1.000000" stroke="none" 
	d="
M301.958984,292.116150 
	C303.209503,290.790924 304.846558,289.475250 306.862122,288.182678 
	C305.608917,289.512390 303.977203,290.819031 301.958984,292.116150 
z"/>
<path fill="#ff0080" opacity="1.000000" stroke="none" 
	d="
M193.645508,295.044800 
	C194.843063,295.607300 195.749863,296.156616 196.834946,296.897675 
	C195.509064,296.925629 194.004913,296.761841 192.217133,296.437012 
	C191.971970,296.065155 192.010422,295.854279 192.122772,295.330261 
	C192.582703,295.021942 192.968750,295.026794 193.645508,295.044800 
z"/>
<path fill="#ff0080" opacity="1.000000" stroke="none" 
	d="
M305.021484,239.601379 
	C304.604950,239.670761 304.026215,239.451279 303.218567,239.014282 
	C303.612885,238.968674 304.236084,239.140579 305.021484,239.601379 
z"/>
<path fill="#ff0080" opacity="1.000000" stroke="none" 
	d="
M305.760376,240.028076 
	C305.995728,240.123520 305.989410,240.593903 305.981842,240.829742 
	C305.750519,240.794952 305.526794,240.524338 305.169556,240.024490 
	C305.199066,239.841080 305.362061,239.886871 305.760376,240.028076 
z"/>
<path fill="#ff0080" opacity="1.000000" stroke="none" 
	d="
M307.323181,288.112610 
	C307.275452,287.919281 307.519318,287.652069 307.963898,287.203979 
	C307.981323,287.361633 307.798035,287.700195 307.323181,288.112610 
z"/>
</svg>
