<?xml version="1.0" encoding="UTF-8"?>
<svg xmlns="http://www.w3.org/2000/svg" viewBox="0 0 1200 800">
  <defs>
    <style><![CDATA[
      .wordmark {
        fill: #1A4480;
        stroke: #000;
        stroke-width: 1.6;
        paint-order: stroke fill;
        vector-effect: non-scaling-stroke;
        shape-rendering: geometricPrecision;
        text-rendering: optimizeLegibility;
        font-family: system-ui, -apple-system, "Segoe UI", Roboto, "Helvetica Neue",
                     Arial, "Noto Sans", "Liberation Sans", "DejaVu Sans", sans-serif;
        font-weight: 800;
        letter-spacing: 2px;
      }
    ]]></style>
  </defs>

  <!-- Bubbles (from main), translated to center above the text -->
  <g transform="translate(240,40)">
    <path fill="#00ff41" opacity="1.000000" stroke="none" d="
M352.124725,206.128784 
	C334.969910,206.090652 317.813904,206.148911 300.661133,205.941193 
	C296.761719,205.893982 293.724365,206.871460 290.710449,209.414276 
	C282.187897,216.604767 273.380524,223.456619 264.736145,230.504211 
	C260.727234,233.772629 256.460876,235.482300 251.397247,233.215912 
	C246.144226,230.864746 245.251724,226.248886 245.272537,221.169037 
	C245.313477,211.175812 245.494446,201.177597 245.214981,191.192703 
	C245.149475,188.852264 244.035660,186.054535 242.464752,184.315994 
	C219.554947,158.961182 211.704849,129.624985 222.950058,97.357933 
	C233.643677,66.673676 257.118500,49.068367 289.098083,44.382950 
	C301.988068,42.494404 315.372498,43.640453 328.519379,43.945576 
	C340.625214,44.226536 352.962524,43.938396 364.755920,46.202850 
	C385.618347,50.208656 401.610046,62.470074 413.486145,80.010727 
	C414.957031,82.183144 415.893585,84.717316 416.926392,87.681297 
	C414.886780,88.480766 413.001343,88.824951 411.109772,88.862648 
	C393.754791,89.208443 378.308685,94.814636 365.126160,106.077690 
	C341.949951,125.879311 332.391571,150.731110 340.012299,180.632965 
	C342.292389,189.579453 347.991852,197.654495 352.124725,206.128784 
z"/>
    <path fill="#ff0080" opacity="1.000000" stroke="none" d="
M478.273102,102.849609 
	C482.138123,106.282310 486.003143,109.715019 490.066345,113.752861 
	C490.848755,114.889603 491.432953,115.421227 492.017151,115.952843 
	C513.980774,139.847794 514.754883,178.999588 493.794128,205.991272 
	C492.977875,207.042374 492.322723,208.350021 491.271210,209.066635 
	C481.283875,215.872955 481.895111,226.027328 482.420807,236.242752 
	C482.573639,239.212296 482.522217,242.255630 482.048828,245.181717 
	C480.849670,252.593216 474.338287,255.779037 467.923035,251.807877 
	C461.146210,247.612854 454.588287,243.018478 448.232697,238.205124 
	C444.173187,235.130661 440.001923,233.945450 434.914825,233.842896 
	C421.313110,233.568634 407.666168,233.239258 394.155029,231.814377 
	C388.086456,231.174377 382.299042,227.868225 376.148865,225.147964 
	C374.237549,220.485092 373.493896,220.137878 370.063171,221.792282 
	C369.443878,221.399399 368.824554,221.006516 368.054260,220.001099 
	C367.160675,215.766724 364.637207,214.823593 361.348816,215.030975 
	C361.348816,215.030975 361.068695,214.995041 361.165405,214.506989 
	C360.352081,212.363647 359.806671,210.299713 358.477753,209.113861 
	C335.737549,188.822205 335.951691,151.751389 347.282898,130.608521 
	C355.870941,114.584122 368.903717,103.093887 385.394348,96.155060 
	C392.836700,93.023499 401.406891,91.827202 409.549377,91.416100 
	C413.677551,91.207672 417.172913,92.525703 421.950073,90.646240 
	C429.897308,87.519569 438.821045,89.295288 447.281494,91.681885 
	C453.762115,93.509995 460.469940,94.532501 467.076721,95.913315 
	C467.252441,95.945900 467.428192,95.978477 467.947357,96.419342 
	C468.958862,97.107597 469.627014,97.387566 470.295135,97.667542 
	C470.295135,97.667542 470.260162,97.895996 470.252502,98.177521 
	C470.897888,103.621696 475.478790,101.602272 478.273102,102.849609 
z"/>
  </g>

  <!-- Wordmark -->
  <g class="wordmark" font-size="220" text-anchor="middle">
    <text x="600" y="700">lchaty</text>
  </g>
</svg>
